<svg width="306" height="91" viewBox="0 0 306 91" fill="none" xmlns="http://www.w3.org/2000/svg">
<rect width="197.104" height="22.9504" transform="translate(107.379 67.4175)" fill="white"/>
<path d="M117.408 79.1088H122.286V80.6464H117.408V79.1088ZM117.562 84.3926H115.745V74.6079H122.887V76.1315H117.562V84.3926ZM140.026 84.3926V82.8829L139.928 82.5614V79.9196C139.928 79.407 139.775 79.011 139.467 78.7314C139.16 78.4425 138.694 78.2981 138.069 78.2981C137.65 78.2981 137.235 78.3633 136.825 78.4938C136.425 78.6243 136.084 78.806 135.805 79.039L135.12 77.7669C135.521 77.4594 135.996 77.2311 136.546 77.082C137.105 76.9236 137.683 76.8444 138.279 76.8444C139.36 76.8444 140.194 77.1053 140.781 77.6272C141.377 78.1397 141.676 78.9364 141.676 80.0174V84.3926H140.026ZM137.678 84.4904C137.119 84.4904 136.63 84.3972 136.21 84.2109C135.791 84.0152 135.465 83.7496 135.232 83.4141C135.008 83.0693 134.896 82.6826 134.896 82.2539C134.896 81.8346 134.994 81.4572 135.19 81.1217C135.395 80.7862 135.726 80.5206 136.182 80.3249C136.639 80.1292 137.245 80.0314 137.999 80.0314H140.166V81.1916H138.125C137.529 81.1916 137.128 81.2894 136.923 81.4851C136.718 81.6715 136.616 81.9045 136.616 82.184C136.616 82.5009 136.741 82.7525 136.993 82.9389C137.245 83.1252 137.594 83.2184 138.041 83.2184C138.47 83.2184 138.852 83.1206 139.188 82.9249C139.532 82.7292 139.779 82.4403 139.928 82.0582L140.222 83.1066C140.054 83.5446 139.751 83.8847 139.313 84.127C138.885 84.3693 138.34 84.4904 137.678 84.4904ZM155.101 84.3926V76.9283H156.764V78.983L156.568 78.382C156.792 77.8788 157.141 77.4967 157.617 77.2358C158.101 76.9748 158.702 76.8444 159.42 76.8444V78.5078C159.345 78.4891 159.275 78.4798 159.21 78.4798C159.145 78.4705 159.08 78.4658 159.014 78.4658C158.353 78.4658 157.826 78.6615 157.435 79.0529C157.044 79.435 156.848 80.0081 156.848 80.7722V84.3926H155.101ZM181.506 76.8444C182.102 76.8444 182.629 76.9609 183.085 77.1938C183.551 77.4268 183.915 77.7856 184.176 78.2702C184.437 78.7454 184.567 79.3604 184.567 80.1153V84.3926H182.82V80.3389C182.82 79.6773 182.675 79.1834 182.386 78.8572C182.098 78.5311 181.683 78.368 181.142 78.368C180.76 78.368 180.42 78.4519 180.122 78.6196C179.833 78.7873 179.605 79.0343 179.437 79.3604C179.279 79.6866 179.199 80.1013 179.199 80.6045V84.3926H177.452V80.3389C177.452 79.6773 177.308 79.1834 177.019 78.8572C176.73 78.5311 176.315 78.368 175.775 78.368C175.393 78.368 175.053 78.4519 174.754 78.6196C174.466 78.7873 174.237 79.0343 174.069 79.3604C173.911 79.6866 173.832 80.1013 173.832 80.6045V84.3926H172.085V76.9283H173.748V78.9131L173.454 78.3261C173.706 77.8415 174.069 77.4734 174.545 77.2218C175.029 76.9702 175.579 76.8444 176.194 76.8444C176.893 76.8444 177.499 77.0168 178.011 77.3616C178.533 77.7064 178.878 78.2282 179.046 78.9271L178.361 78.6895C178.603 78.1304 179.004 77.6831 179.563 77.3476C180.122 77.0121 180.77 76.8444 181.506 76.8444ZM214.859 79.1088H219.737V80.6464H214.859V79.1088ZM215.013 84.3926H213.196V74.6079H220.339V76.1315H215.013V84.3926ZM232.974 84.3926V76.9283H234.638V78.983L234.442 78.382C234.665 77.8788 235.015 77.4967 235.49 77.2358C235.975 76.9748 236.576 76.8444 237.293 76.8444V78.5078C237.219 78.4891 237.149 78.4798 237.084 78.4798C237.018 78.4705 236.953 78.4658 236.888 78.4658C236.226 78.4658 235.7 78.6615 235.308 79.0529C234.917 79.435 234.721 80.0081 234.721 80.7722V84.3926H232.974ZM253.398 84.4904C252.569 84.4904 251.842 84.3273 251.218 84.0012C250.603 83.6657 250.123 83.2091 249.778 82.6313C249.443 82.0536 249.275 81.3966 249.275 80.6604C249.275 79.9149 249.438 79.2579 249.764 78.6895C250.1 78.1117 250.556 77.6598 251.134 77.3336C251.721 77.0075 252.387 76.8444 253.133 76.8444C253.86 76.8444 254.507 77.0028 255.076 77.3196C255.644 77.6365 256.091 78.0838 256.418 78.6615C256.744 79.2393 256.907 79.9196 256.907 80.7023C256.907 80.7769 256.902 80.8608 256.893 80.954C256.893 81.0471 256.888 81.1357 256.879 81.2195H250.659V80.0594H255.956L255.271 80.4228C255.281 79.9941 255.192 79.6167 255.006 79.2906C254.819 78.9644 254.563 78.7081 254.237 78.5218C253.92 78.3354 253.552 78.2422 253.133 78.2422C252.704 78.2422 252.327 78.3354 252.001 78.5218C251.684 78.7081 251.432 78.9691 251.246 79.3045C251.069 79.6307 250.98 80.0174 250.98 80.4647V80.7443C250.98 81.1916 251.083 81.5876 251.288 81.9324C251.493 82.2772 251.782 82.5428 252.154 82.7292C252.527 82.9156 252.956 83.0087 253.44 83.0087C253.86 83.0087 254.237 82.9435 254.573 82.813C254.908 82.6826 255.206 82.4776 255.467 82.198L256.404 83.2743C256.068 83.6657 255.644 83.9686 255.132 84.1829C254.628 84.3879 254.051 84.4904 253.398 84.4904ZM272.074 84.4904C271.45 84.4904 270.849 84.4112 270.271 84.2528C269.703 84.0851 269.251 83.8847 268.915 83.6517L269.586 82.3238C269.922 82.5381 270.322 82.7152 270.788 82.855C271.254 82.9948 271.72 83.0647 272.186 83.0647C272.736 83.0647 273.132 82.9901 273.374 82.841C273.626 82.6919 273.752 82.4916 273.752 82.2399C273.752 82.0349 273.668 81.8812 273.5 81.7787C273.332 81.6668 273.113 81.583 272.843 81.5271C272.573 81.4711 272.27 81.4199 271.934 81.3733C271.608 81.3267 271.277 81.2661 270.942 81.1916C270.616 81.1077 270.318 80.9912 270.047 80.8421C269.777 80.6837 269.558 80.474 269.39 80.2131C269.223 79.9522 269.139 79.6074 269.139 79.1787C269.139 78.7035 269.274 78.2934 269.544 77.9487C269.814 77.5945 270.192 77.3243 270.676 77.1379C271.17 76.9422 271.753 76.8444 272.424 76.8444C272.927 76.8444 273.435 76.9003 273.947 77.0121C274.46 77.1239 274.884 77.2824 275.219 77.4874L274.548 78.8153C274.194 78.601 273.835 78.4565 273.472 78.382C273.118 78.2981 272.764 78.2562 272.41 78.2562C271.878 78.2562 271.482 78.3354 271.221 78.4938C270.97 78.6522 270.844 78.8526 270.844 79.0949C270.844 79.3185 270.928 79.4863 271.096 79.5981C271.263 79.7099 271.482 79.7984 271.753 79.8637C272.023 79.9289 272.321 79.9848 272.647 80.0314C272.983 80.0687 273.314 80.1292 273.64 80.2131C273.966 80.297 274.264 80.4135 274.534 80.5626C274.814 80.7023 275.038 80.9027 275.205 81.1636C275.373 81.4246 275.457 81.7647 275.457 82.184C275.457 82.65 275.317 83.0553 275.038 83.4001C274.767 83.7449 274.381 84.0152 273.877 84.2109C273.374 84.3972 272.773 84.4904 272.074 84.4904ZM292.379 76.8444C292.976 76.8444 293.507 76.9609 293.973 77.1938C294.448 77.4268 294.821 77.7856 295.091 78.2702C295.361 78.7454 295.497 79.3604 295.497 80.1153V84.3926H293.749V80.3389C293.749 79.6773 293.591 79.1834 293.274 78.8572C292.967 78.5311 292.533 78.368 291.974 78.368C291.564 78.368 291.201 78.4519 290.884 78.6196C290.567 78.7873 290.32 79.039 290.143 79.3744C289.975 79.7006 289.891 80.1153 289.891 80.6185V84.3926H288.144V74.0208H289.891V78.9411L289.514 78.3261C289.775 77.8508 290.152 77.4874 290.646 77.2358C291.149 76.9748 291.727 76.8444 292.379 76.8444Z" fill="#2E522A"/>
<path d="M108.546 32.0669V17.7358H112.518L118.25 27.0919H116.162L121.731 17.7358H125.702L125.743 32.0669H121.342L121.301 24.369H121.997L118.189 30.7771H116.059L112.088 24.369H112.948V32.0669H108.546ZM130.413 32.0669L136.678 17.7358H141.428L147.692 32.0669H142.697L138.07 20.0288H139.954L135.327 32.0669H130.413ZM134.139 29.5692L135.368 26.0888H141.96L143.188 29.5692H134.139ZM152.353 32.0669V17.7358H159.417C161.013 17.7358 162.419 18.0292 163.634 18.6161C164.849 19.1894 165.797 20.0083 166.48 21.0729C167.162 22.1375 167.503 23.4068 167.503 24.8809C167.503 26.3686 167.162 27.6515 166.48 28.7298C165.797 29.7944 164.849 30.6201 163.634 31.207C162.419 31.7803 161.013 32.0669 159.417 32.0669H152.353ZM157.185 28.2999H159.212C159.894 28.2999 160.488 28.1702 160.993 27.9109C161.512 27.6515 161.914 27.2694 162.201 26.7644C162.488 26.2457 162.631 25.6179 162.631 24.8809C162.631 24.1575 162.488 23.5433 162.201 23.0383C161.914 22.5333 161.512 22.1511 160.993 21.8918C160.488 21.6325 159.894 21.5028 159.212 21.5028H157.185V28.2999ZM171.402 32.0669L177.666 17.7358H182.416L188.681 32.0669H183.685L179.059 20.0288H180.942L176.315 32.0669H171.402ZM175.128 29.5692L176.356 26.0888H182.948L184.177 29.5692H175.128ZM193.342 32.0669V17.7358H197.314L204.602 26.4573H202.759V17.7358H207.468V32.0669H203.496L196.208 23.3454H198.051V32.0669H193.342ZM213.686 32.0669V17.7358H218.518V28.3203H224.987V32.0669H213.686ZM228.856 32.0669L235.12 17.7358H239.87L246.135 32.0669H241.139L236.513 20.0288H238.396L233.769 32.0669H228.856ZM232.582 29.5692L233.81 26.0888H240.402L241.631 29.5692H232.582ZM250.796 32.0669V17.7358H255.627V28.3203H262.097V32.0669H250.796ZM108.546 57.0669V42.7358H116.203C118.182 42.7358 119.642 43.0906 120.584 43.8004C121.526 44.4965 121.997 45.3904 121.997 46.4823C121.997 47.2057 121.792 47.854 121.382 48.4273C120.987 48.9869 120.407 49.4305 119.642 49.758C118.878 50.0856 117.936 50.2494 116.817 50.2494L117.226 49.1438C118.346 49.1438 119.308 49.3008 120.113 49.6147C120.932 49.9286 121.56 50.3859 121.997 50.9864C122.447 51.5733 122.672 52.283 122.672 53.1156C122.672 54.3576 122.154 55.3267 121.116 56.0228C120.093 56.7189 118.591 57.0669 116.612 57.0669H108.546ZM113.296 53.6888H116.203C116.735 53.6888 117.131 53.5933 117.39 53.4022C117.663 53.2111 117.8 52.9313 117.8 52.5628C117.8 52.1943 117.663 51.9145 117.39 51.7234C117.131 51.5324 116.735 51.4368 116.203 51.4368H112.968V48.243H115.548C116.094 48.243 116.489 48.1543 116.735 47.9769C116.994 47.7858 117.124 47.5196 117.124 47.1784C117.124 46.8236 116.994 46.5574 116.735 46.38C116.489 46.2025 116.094 46.1138 115.548 46.1138H113.296V53.6888ZM137.565 42.7358H142.397V57.0669H137.565V42.7358ZM133.102 57.0669H128.27V42.7358H133.102V57.0669ZM137.893 51.7849H132.774V47.8131H137.893V51.7849ZM147.059 57.0669L153.323 42.7358H158.073L164.338 57.0669H159.343L154.716 45.0288H156.599L151.972 57.0669H147.059ZM150.785 54.5692L152.013 51.0888H158.605L159.834 54.5692H150.785ZM168.999 57.0669V42.7358H172.971L180.259 51.4573H178.416V42.7358H183.125V57.0669H179.154L171.865 48.3454H173.708V57.0669H168.999ZM192.967 57.0669L188.381 42.7358H193.356L197.062 54.8353H194.564L198.495 42.7358H202.937L206.602 54.8353H204.207L208.076 42.7358H212.662L208.076 57.0669H202.896L199.907 47.1579H201.299L198.147 57.0669H192.967ZM215.549 57.0669L221.814 42.7358H226.563L232.828 57.0669H227.833L223.206 45.0288H225.089L220.462 57.0669H215.549ZM219.275 54.5692L220.503 51.0888H227.096L228.324 54.5692H219.275ZM237.489 57.0669V42.7358H244.389C245.726 42.7358 246.879 42.9542 247.849 43.3909C248.831 43.8277 249.589 44.4555 250.121 45.2744C250.653 46.0797 250.919 47.0351 250.919 48.1407C250.919 49.2462 250.653 50.2016 250.121 51.0069C249.589 51.7985 248.831 52.4059 247.849 52.829C246.879 53.2521 245.726 53.4636 244.389 53.4636H240.171L242.321 51.4778V57.0669H237.489ZM246.067 57.0669L242.546 51.8463H247.664L251.227 57.0669H246.067ZM242.321 52.0101L240.171 49.8194H244.081C244.75 49.8194 245.242 49.6693 245.556 49.369C245.883 49.0688 246.047 48.6593 246.047 48.1407C246.047 47.622 245.883 47.2125 245.556 46.9123C245.242 46.612 244.75 46.4619 244.081 46.4619H240.171L242.321 44.2712V52.0101ZM256.634 57.0669V42.7358H261.466V53.3203H267.935V57.0669H256.634ZM271.803 57.0669L278.068 42.7358H282.818L289.083 57.0669H284.087L279.46 45.0288H281.344L276.717 57.0669H271.803ZM275.53 54.5692L276.758 51.0888H283.35L284.579 54.5692H275.53ZM293.744 57.0669V42.7358H298.575V53.3203H305.045V57.0669H293.744Z" fill="white"/>
<path d="M29.9675 49.9352C28.7168 48.706 27.97 47.6254 28.5497 45.9781C28.8788 46.4315 29.3092 46.8446 29.5194 47.3458C30.2384 49.0586 31.5194 50.0435 33.3093 50.3734C34.8561 50.6606 36.4182 50.8646 37.9701 51.1241C41.4283 51.6983 44.3879 53.2021 46.7221 55.9426C47.5676 50.4389 43.3727 44.2099 38.0865 42.9731C35.7701 42.4316 34.2814 43.3107 34.0384 45.3182C33.9143 46.3458 34.3194 47.0562 35.2131 47.4718C36.1397 47.9 37.0891 48.0234 37.8739 47.1544C38.0005 47.0133 38.0156 46.7715 38.203 46.6834C38.641 47.6733 38.3017 48.1871 37.5068 48.4768C35.8966 49.0637 33.9776 48.3005 33.2966 46.7992C32.6105 45.2905 33.289 43.3258 34.9194 42.4794C35.6789 42.084 36.5827 41.9631 37.5625 41.6734C37.2005 41.4719 36.8334 41.2251 36.4359 41.0488C34.4764 40.1924 32.4941 39.3914 30.5498 38.5047C28.5725 37.6055 26.8459 36.3562 25.6738 34.4872C25.2054 33.7391 24.8256 32.923 25.4105 32.0717C26.3472 33.4797 27.0763 35.0665 28.251 36.1975C29.4181 37.3234 31.0308 37.9909 32.5675 38.7062C30.4257 36.4443 28.8004 33.9406 28.0687 30.9583C27.6687 29.3261 27.5269 27.631 27.2409 25.9685C27.0788 25.0315 26.8409 24.1273 25.5902 24.1902C25.8003 22.9888 26.1953 23.0039 27.8687 24.2557C28.3801 21.815 28.5675 19.4624 27.2662 17.2307C26.1674 15.3466 24.1522 14.3794 22.4104 14.863C20.7902 15.3114 19.8205 16.737 19.9876 18.4297C20.1167 19.7521 21.6408 21.1727 23.0433 21.2835C24.1016 21.3666 25.2231 20.5379 25.2256 19.4826C25.2256 19.0745 24.6991 18.669 24.4155 18.2584C24.294 18.0821 24.1851 17.8957 24.0712 17.7143C24.2687 17.6111 24.4712 17.4096 24.6586 17.4196C25.4712 17.4725 26.0282 17.8604 26.132 18.7294C26.2611 19.7999 25.9927 20.7672 25.1446 21.4397C24.1801 22.2054 23.0484 22.2306 21.9269 21.7898C20.0307 21.0468 18.8003 18.737 19.2762 16.8806C19.7243 15.1325 21.9649 13.722 23.9421 13.989C24.5699 14.0721 25.1826 14.2837 25.5624 14.3769C25.5624 13.256 25.5016 12.0722 25.6054 10.9009C25.6307 10.6213 26.2054 10.3921 26.5421 10.1276C26.6662 10.3443 26.7548 10.44 26.7345 10.4702C25.4459 12.4349 26.094 14.0847 27.4839 15.7018C29.2535 17.7622 30.2789 20.1148 29.8611 23.1701C30.3143 22.747 30.5801 22.485 30.8611 22.2382C31.9548 21.276 33.6612 21.0719 34.7979 21.8377C35.1245 22.0568 35.365 22.48 35.5068 22.8603C35.5675 23.024 35.3346 23.4044 35.1346 23.5202C35.0207 23.5882 34.6384 23.3792 34.4992 23.2003C33.5397 21.9712 32.6966 21.8427 31.4915 22.888C30.1852 24.024 29.5016 25.4975 29.4004 27.2254C29.2738 29.3941 29.9219 31.3261 31.2485 33.2278C31.7472 31.7593 31.0561 29.5856 33.5118 29.6485C32.4688 30.0616 32.0941 30.9382 32.1928 31.9885C32.2814 32.9306 32.3042 34.0263 32.8055 34.7466C33.5118 35.7643 34.5498 36.6207 35.5979 37.3184C36.727 38.069 38.0359 38.5526 39.122 39.0841C38.522 37.3738 37.7777 35.6232 37.322 33.8021C37.0916 32.8827 37.2182 31.787 37.4815 30.8551C37.8207 29.6611 39.0486 29.3941 40.2942 30.1649C40.0081 30.2556 39.7853 30.2808 39.6207 30.3891C39.1321 30.7115 38.3169 31.0188 38.2612 31.4193C38.1093 32.5326 37.965 33.8273 38.3979 34.792C39.0055 36.1396 39.922 37.5425 41.0891 38.4141C44.6815 41.1016 46.9271 44.691 48.7423 48.643C48.836 48.847 48.9449 49.046 49.1297 49.4188C49.1297 46.7564 49.2461 44.2905 49.0866 41.8422C48.9879 40.3032 48.5904 38.7541 48.117 37.2756C47.6588 35.8449 46.598 34.8298 45.1575 34.2731C44.2436 33.9205 43.3473 34.0363 42.6942 34.7366C42.3347 35.122 41.9372 35.9078 42.1068 36.2378C42.3397 36.6962 43.0562 37.006 43.6233 37.1647C44.0815 37.2932 44.6309 37.1043 45.2309 37.0463C45.0461 38.21 44.2436 38.3007 43.5043 38.2327C42.4663 38.137 41.6866 37.5728 41.4056 36.5098C41.1423 35.5124 41.6157 34.7668 42.3853 34.2278C43.7853 33.2454 45.317 33.4016 46.5929 34.3033C47.8259 35.1749 48.8208 36.3814 49.8639 37.3889C49.712 35.462 49.0107 33.5049 47.6436 31.9054C45.8942 29.8576 44.0132 27.9131 42.0638 26.0517C41.3068 25.3288 40.2663 24.7645 39.2562 24.495C38.7068 24.3489 37.8232 24.8325 37.3245 25.2885C36.8283 25.7418 36.6764 26.495 37.4511 27.0516C37.5903 27.1524 37.6891 27.573 37.6081 27.6536C37.4384 27.8249 37.1321 27.966 36.8967 27.9483C35.9625 27.8778 35.3726 26.8451 35.6587 25.8627C36.0966 24.359 37.4536 23.5782 39.7979 23.5505C37.6005 21.5404 36.7042 18.941 35.8865 16.2736C35.5878 15.3013 35.1169 14.2938 34.4511 13.5432C33.3903 12.3467 31.5928 12.8505 31.0637 14.3567C30.7092 15.3592 31.2333 16.1879 32.289 16.3894C32.5675 16.4423 32.8105 16.6867 33.0713 16.8428C32.7928 17.0217 32.5093 17.3491 32.2358 17.3416C31.8358 17.329 31.3472 17.1778 31.0611 16.9083C30.2738 16.1703 30.2206 14.6817 30.8485 13.6515C31.4409 12.6792 32.5599 12.2006 33.6688 12.7044C34.5397 13.0999 35.2713 13.8051 36.1954 14.4676C36.2789 13.0293 36.5169 11.4828 36.3853 9.96895C36.3245 9.26872 35.5422 8.62642 35.0814 7.96145C34.9194 7.7272 34.7321 7.51058 34.5549 7.28892C34.9118 7.19069 35.4435 6.89599 35.5903 7.02948C36.046 7.4325 36.4587 7.95641 36.6891 8.51559C36.9194 9.07729 36.9093 9.73722 37.0435 10.6012C38.6739 7.73727 41.1043 6.65418 44.0562 6.16553C45.0461 6.0018 45.9929 4.93382 46.7145 4.0749C47.0411 3.687 46.7702 2.80037 46.7702 1.97168C46.9803 2.19586 47.4968 2.48804 47.5347 2.83312C47.717 4.50562 46.317 5.21341 45.2208 6.22346C45.598 6.36199 45.917 6.47282 46.2335 6.59625C49.5348 7.89092 50.8588 12.2812 48.6613 14.8958C48.1271 15.5305 47.274 15.9864 46.4765 16.2912C45.8891 16.5154 45.117 16.4171 44.9296 15.4071C47.0917 15.4272 48.5677 14.4499 49.1423 12.4525C49.6563 10.6616 48.8107 9.20827 47.474 8.09243C45.6157 6.54335 43.5448 6.40985 41.3423 7.44005C41.9878 7.85314 42.7625 8.11258 43.1398 8.64909C43.5423 9.21834 43.6461 10.0445 43.7043 10.7725C43.7195 10.9664 43.0891 11.2107 42.6157 11.309C43.441 10.5004 43.4689 9.71455 42.8132 8.90853C42.1296 8.06976 41.2613 7.97152 40.3068 8.4098C38.8182 9.08988 37.8865 10.2511 37.4131 11.7875C36.5928 14.4499 36.9473 16.9814 38.2713 19.6085C38.4005 18.3919 38.441 17.3718 38.6359 16.3819C38.8511 15.2761 39.5372 14.6338 40.7954 14.7346C38.16 17.6917 38.2865 20.2231 41.2132 23.0694C42.1043 23.9358 43.0537 24.7419 44.2157 25.7897C44.036 25.1877 43.9347 24.8829 43.8512 24.5706C43.1119 21.7898 45.6132 19.2533 48.4259 19.9309C49.4537 20.1778 50.0132 20.8226 50.1575 21.8503C50.3094 22.9308 50.0715 23.9333 49.0715 24.4472C48.6461 24.6663 47.9601 24.4371 47.4132 24.3187C47.3043 24.296 47.1828 23.8023 47.2638 23.6059C47.3271 23.4548 47.7676 23.291 47.9195 23.3666C48.836 23.8301 49.4537 23.2558 49.6335 22.6109C49.7803 22.087 49.5094 21.2634 49.1322 20.8201C48.4158 19.9763 46.96 19.9763 45.8866 20.611C44.5727 21.3893 43.8334 22.689 44.2461 23.9132C44.5448 24.8023 45.0942 25.631 45.6385 26.4144C46.117 27.1045 46.7347 27.7015 47.3119 28.3211C48.8234 29.9432 50.2436 31.6208 50.8386 33.8777C51.8284 30.7568 53.9753 28.5403 56.1525 26.3237C58.2057 24.2356 57.9323 21.5656 55.5753 20.5153C55.0184 20.2684 54.3171 20.2004 53.7019 20.2609C52.512 20.3767 51.6892 21.4296 51.8892 22.4019C52.0816 23.3364 52.8183 23.6311 54.4538 23.2558C54.3551 23.7117 54.3753 24.2885 54.1778 24.3766C53.75 24.5656 53.1297 24.6865 52.7272 24.5127C51.6639 24.0542 51.3981 23.0694 51.4917 21.9938C51.5854 20.9208 52.1576 20.2055 53.2259 19.9359C56.069 19.2156 58.5602 21.8024 57.7981 24.6839C57.7272 24.9484 57.6057 25.1978 57.6007 25.5303C59.4007 23.8452 61.7551 22.6462 62.4691 20.0266C63.0083 18.0443 62.9045 16.1854 60.8564 14.9285C62.6817 14.4852 63.2463 15.5859 63.2539 19.6513C63.5172 19.2408 63.7146 19.0191 63.8184 18.7622C64.8058 16.329 65.0387 13.8555 64.0969 11.3593C63.545 9.89843 62.5399 8.82793 61.0387 8.29393C60.0133 7.9287 59.2057 8.29142 58.6614 9.19064C58.1931 9.96643 58.2538 10.6541 59.2867 11.0722C59.1931 11.183 59.0969 11.2939 59.0032 11.4047C58.631 11.173 58.0639 11.0218 57.9196 10.6919C57.4412 9.59617 58.6057 8.13777 60.2741 7.60629C58.8184 6.49297 56.593 6.50305 54.8057 7.634C53.0209 8.76244 52.0765 10.7145 52.4892 12.4273C52.8993 14.1175 54.3323 15.1653 56.6336 15.4524C56.4538 16.2912 55.8918 16.5456 54.8842 16.2509C52.7652 15.6262 51.436 13.0671 52.0512 10.6717C52.6234 8.44254 53.9677 6.90354 56.4082 6.2965C55.274 5.03709 53.2411 4.03964 54.8766 2.0145C54.9424 2.81297 54.7095 3.89354 55.1424 4.35197C55.9475 5.20585 57.069 6.05973 58.1829 6.26628C60.9728 6.78264 63.1298 8.03449 64.6311 10.6037C64.8007 9.64654 64.8488 8.84304 65.1096 8.1151C65.2666 7.67682 65.6995 7.27633 66.1096 7.01437C66.2893 6.8985 66.7223 7.17306 67.0387 7.27129C66.8818 7.50302 66.7754 7.81788 66.5577 7.94885C65.5957 8.52567 65.1222 9.39466 65.1552 10.4551C65.1957 11.8102 65.383 13.1628 65.4944 14.3819C66.4185 13.7724 67.2311 13.0646 68.1754 12.6565C69.216 12.2057 70.3552 12.8026 70.9096 13.8328C71.4615 14.858 71.2919 16.4978 70.4539 17.0469C70.0742 17.2937 69.4843 17.266 68.9906 17.271C68.859 17.2736 68.7248 16.936 68.5906 16.7522C68.7653 16.6262 68.9476 16.3819 69.1147 16.392C70.0033 16.4423 70.659 16.0041 70.616 15.2056C70.578 14.5356 70.2033 13.6439 69.6818 13.3089C69.1704 12.979 68.1932 13.0218 67.5881 13.2862C67.0387 13.5255 66.621 14.2308 66.3172 14.8202C65.9526 15.5255 65.7349 16.3164 65.5172 17.0872C64.8311 19.5153 63.8032 21.752 61.7754 23.6714C63.6311 23.3943 64.9703 23.9333 65.8134 25.3942C66.4666 26.5227 65.94 27.8048 64.8134 27.9509C64.5779 27.9811 64.2589 27.8677 64.0868 27.7065C63.9931 27.6184 64.0463 27.1675 64.1678 27.0894C65.0488 26.5202 64.7577 25.8527 64.3298 25.228C63.8286 24.495 63.102 24.1651 62.221 24.4875C61.6564 24.694 61.0716 24.9207 60.5982 25.2759C57.6943 27.4395 55.2184 30.044 53.2816 33.0767C52.4487 34.3839 52.1095 36.001 51.5474 37.4796C51.6765 37.535 51.8057 37.5904 51.9348 37.6483C52.3196 37.074 52.6538 36.4569 53.0993 35.9381C54.388 34.4343 55.9348 33.4016 58.0462 33.7089C59.3602 33.9003 60.345 35.0187 60.2969 36.1522C60.2513 37.2378 59.3526 38.1748 58.1728 38.2503C57.4032 38.3007 56.6412 38.1848 56.3424 37.074C56.907 37.1219 57.4108 37.2982 57.8209 37.1723C58.4614 36.9758 59.2665 36.7088 59.5602 36.2126C59.7374 35.9129 59.2133 34.9708 58.7652 34.5905C57.912 33.8651 56.8893 34.0061 55.9298 34.5401C54.2943 35.4494 53.3475 36.9154 53.0563 38.6685C52.6968 40.8397 52.5626 43.0512 52.4133 45.2502C52.3247 46.5675 52.3981 47.8949 52.3981 49.5196C52.6715 49.0687 52.8158 48.8395 52.9474 48.6052C54.031 46.6808 54.9728 44.6557 56.2411 42.8598C57.2234 41.4694 58.6209 40.3737 59.8159 39.1294C60.8159 38.0891 61.8463 37.0665 62.7526 35.9506C63.1678 35.4418 63.4159 34.7441 63.5703 34.0918C64.1045 31.8626 63.5551 30.8803 61.4842 30.1725C62.6463 29.2002 64.1526 29.8375 64.3931 31.4722C64.7476 33.8902 63.9754 36.0741 62.8159 38.1496C62.6615 38.4292 62.4665 38.6861 62.3526 39.0463C64.6007 38.0715 66.9957 37.3461 68.5957 35.2983C69.5932 34.0212 69.6489 32.52 69.3122 31.044C69.1982 30.5427 68.5577 30.1624 68.178 29.7493C69.5223 29.0415 69.8615 29.5251 70.3324 33.0767C72.897 30.6536 72.9654 25.6209 70.4691 23.1475C69.0767 21.7697 67.9957 21.8981 66.7957 23.7495C66.5374 23.4371 66.1324 23.1651 66.1425 22.9082C66.1552 22.5706 66.4185 22.15 66.7045 21.9309C67.8261 21.0694 69.697 21.2583 70.8464 22.2961C71.135 22.5555 71.3881 22.8528 71.8615 23.3464C71.4134 20.4145 72.2388 18.1073 73.9071 16.0544C75.292 14.3467 76.6515 12.6213 74.6742 10.3291C76.5021 10.5055 76.7173 11.4828 75.8793 14.2031C77.0793 14.2031 78.373 14.0016 79.5705 14.2484C81.5123 14.6515 82.6439 16.3693 82.4515 18.1526C82.2338 20.1677 80.6262 21.8629 78.7502 22.0518C76.8211 22.2457 75.2793 20.8049 75.5325 18.9284C75.5983 18.4473 75.9907 17.9133 76.3907 17.6086C76.6363 17.4222 77.1806 17.6211 77.5882 17.6463C77.3603 17.8907 77.0844 18.1048 76.9122 18.3844C76.6996 18.7294 76.3375 19.2533 76.4591 19.48C76.7907 20.1097 77.2312 20.8805 77.8262 21.1324C79.4211 21.8074 81.7857 19.8654 81.7325 18.0619C81.6667 15.8126 79.649 14.3139 77.454 14.8731C76.0844 15.2232 75.0667 16.0444 74.3856 17.2484C73.1223 19.4876 73.2033 21.8351 73.8287 24.2784C75.3603 23.0316 75.697 23.0014 76.1856 24.1147C74.6489 24.1651 74.4793 25.3162 74.3451 26.437C73.9704 29.6082 73.5122 32.7568 71.6008 35.4494C70.816 36.5527 69.9071 37.5703 69.1729 38.8574C70.5957 38.0085 72.2109 37.3662 73.3831 36.2579C74.5527 35.1522 75.2768 33.5804 76.1755 32.2429C76.6186 32.714 76.816 33.1749 76.2413 33.9331C75.2844 35.1925 74.2666 36.5275 72.978 37.3914C71.3248 38.4997 69.383 39.1798 67.5602 40.0311C66.4058 40.5702 65.2412 41.0865 63.8235 41.7288C64.8488 41.9329 65.6058 41.9782 66.2792 42.2402C68.0894 42.9404 69.0615 45.0285 68.4235 46.6708C67.8261 48.2073 65.9881 49.0385 64.2995 48.5322C63.4564 48.2778 63.0032 47.769 63.2007 46.7942C63.7273 47.1191 64.1729 47.5398 64.6995 47.6934C65.9197 48.0536 67.3121 47.2703 67.621 46.167C67.978 44.8849 67.0438 43.1721 65.7299 42.9681C64.9222 42.8422 64.0108 42.8825 63.2336 43.1268C59.4412 44.3182 56.7728 46.7237 55.7019 50.6153C55.2285 52.3381 54.9652 54.1215 54.6006 55.9098C54.831 55.9098 54.8918 55.9275 54.907 55.9073C58.1019 52.1366 62.4994 51.1266 67.1223 50.6253C69.4767 50.3709 71.3932 49.4818 72.2717 47.0662C72.4185 46.6632 72.8464 46.361 73.3071 45.8194C73.7198 47.6456 72.9046 48.7362 71.7578 49.915C74.573 49.4868 77.13 48.9327 79.0895 47.031C80.6768 45.4894 81.2414 43.5499 80.5553 41.3888C79.9426 39.4594 77.8591 38.3133 76.0667 38.8423C74.616 39.2705 73.6844 40.7037 74.1147 41.8397C74.5173 42.9051 75.4185 43.089 77.0439 42.4316C77.6059 43.4114 77.3983 43.9353 76.3781 44.1116C75.178 44.3182 73.9856 43.6885 73.4995 42.5903C72.9173 41.2754 73.3881 39.5526 74.5628 38.6962C76.2034 37.5022 78.6692 37.7894 80.4363 39.4493C81.0059 39.9833 81.4465 40.6558 82.0895 41.4417C82.1249 40.6659 82.1832 40.0488 82.173 39.4342C82.1503 38.1874 82.0237 36.9405 82.0591 35.6988C82.1199 33.5704 81.9123 31.5906 79.6667 30.3916C80.9047 29.9508 81.1857 30.1196 82.3882 31.8525C83.2743 30.1422 84.2364 28.4899 84.9984 26.7494C85.6617 25.233 85.0034 23.8527 83.487 23.3691C83.0819 23.2407 82.4363 23.3792 82.1097 23.6462C81.8996 23.8175 82.0693 24.4497 82.0693 25.0869C81.4642 25.2003 81.0059 25.0139 81.0819 24.0794C81.1781 22.8956 82.1022 22.223 83.287 22.4674C85.2414 22.8704 86.4313 24.8628 85.8744 26.8073C85.7883 27.1045 85.6693 27.3917 85.5148 27.83C87.444 27.1524 89.1908 27.306 90.8136 28.3539C92.4542 29.4118 93.0137 31.2278 92.1934 32.7316C91.7352 33.5678 90.9959 33.918 90.0769 33.8449C89.2946 33.7819 88.9756 33.3286 89.1149 32.5805C89.282 32.5175 89.3782 32.447 89.4288 32.4696C89.9934 32.7266 90.682 33.2731 91.1124 32.5502C91.4592 31.9684 91.6364 31.0944 91.4769 30.4495C91.1428 29.0994 89.9655 28.4974 88.6794 28.2808C87.0895 28.0138 85.73 28.5529 84.6997 29.8072C84.4794 30.0742 84.3351 30.4067 84.1756 30.6787C84.6997 30.84 85.1402 30.9785 85.5807 31.1145C83.3553 32.2858 82.892 33.4671 83.3401 37.0514C83.73 36.6156 84.0085 36.1673 84.4085 35.9028C84.7503 35.6786 85.2313 35.666 85.6516 35.5602C85.687 35.6711 85.7225 35.7819 85.7554 35.8952C85.6769 36.0287 85.6338 36.2151 85.5174 36.2831C83.6313 37.404 83.3731 39.2201 83.2541 41.1747C83.1655 42.6381 82.8439 44.0865 82.5857 45.7942C83.3756 45.0738 84.2693 44.4819 84.8566 43.6683C85.4541 42.8422 85.8136 41.8246 86.1731 40.8523C86.8946 38.9103 89.2617 37.3108 91.0896 37.6559C91.5706 37.7466 92.0187 38.0136 92.4896 38.3788C90.6744 38.7843 88.5199 38.1874 87.3934 40.341C88.2212 40.4745 89.3174 40.0815 89.3959 41.5777C89.0972 41.4996 88.8794 41.4618 88.6744 41.3888C87.725 41.0412 86.8338 41.3535 86.5326 42.2981C85.9959 43.9681 84.8642 45.1041 83.449 46.036C81.5477 47.2879 79.654 48.5549 77.6211 49.9024C79.5528 50.318 81.292 50.7538 83.0541 51.0485C84.2414 51.2475 85.411 51.1341 86.1326 49.9125C86.2364 49.7387 86.5326 49.6757 86.7402 49.5624C86.8338 49.638 86.925 49.7135 87.0187 49.7891C86.7351 50.3533 86.449 50.9175 86.1706 51.4717C87.968 51.8923 89.9832 51.2676 90.6617 49.842C90.9858 49.1594 91.039 48.1947 90.8364 47.4617C90.5984 46.6002 89.763 46.6809 89.001 46.9806C88.8567 47.0385 88.4946 46.8748 88.4339 46.7287C88.3706 46.5751 88.487 46.2678 88.6263 46.1242C89.1832 45.5549 90.3579 45.6431 91.0491 46.2879C92.0111 47.1846 92.1428 48.3433 92.2314 49.6858C92.8769 48.7438 93.5073 47.7891 94.1732 46.8597C94.7327 46.0788 95.2491 45.2401 95.9403 44.5877C96.8264 43.7515 98.2567 44.026 98.8922 45.0159C99.5555 46.0461 99.0593 47.0788 97.5023 47.4516C97.6745 47.036 97.8517 46.764 97.8922 46.4743C97.9504 46.0562 98.0542 45.3484 97.8795 45.2577C97.5048 45.0638 96.7884 44.9882 96.5302 45.2174C95.8491 45.8194 95.3124 46.5952 94.7605 47.3332C93.8263 48.5826 92.925 49.8571 91.9959 51.1392C92.5402 51.4137 93.3124 51.6757 93.9225 52.1442C94.5808 52.6479 95.1149 53.3255 95.6415 53.9754C95.758 54.1164 95.6162 54.4665 95.5934 54.7184C95.3631 54.6277 95.0972 54.5824 94.9099 54.4363C94.7301 54.2927 94.6441 54.0383 94.4972 53.8469C93.1605 52.1064 91.2086 51.4515 89.1225 52.0787C87.1934 52.6605 85.287 52.4087 83.3781 51.9855C82.8338 51.8646 82.292 51.7361 81.7047 51.7487C82.1958 51.9754 82.7022 52.1794 83.1756 52.4364C84.2946 53.0434 84.968 54.3557 84.7528 55.4464C84.5756 56.338 84.168 56.5647 83.2693 56.2751C84.3326 54.867 84.006 53.4918 82.168 52.6102C79.5401 51.3482 76.7629 50.7437 73.8287 51.4364C73.0514 51.6203 72.2717 51.7966 71.2843 52.0258C71.6312 52.2575 71.8236 52.4061 72.0362 52.527C73.9249 53.6051 74.6008 55.5244 73.8109 57.5924C73.0514 59.5798 71.1021 60.6754 69.0742 60.2598C67.9172 60.0206 67.3881 59.3027 67.3476 57.8418C67.8109 58.1415 68.1653 58.2649 68.3552 58.5118C68.9577 59.2951 69.74 59.4261 70.6286 59.2548C72.2033 58.9526 73.3299 57.5899 73.3375 55.998C73.3451 54.5094 72.3147 53.1618 70.7932 52.9023C66.0539 52.0938 61.9475 53.4892 58.3703 56.5924C58.3272 56.6302 58.3298 56.7209 58.3095 56.7914C62.7779 55.3381 64.2817 55.4464 64.8564 57.3179C64.0438 57.0987 63.2665 56.7461 62.4716 56.6982C59.3475 56.5143 56.3196 58.7158 55.4361 61.8946C55.0082 63.4336 54.712 65.0431 54.6386 66.635C54.3728 72.4988 54.0513 78.3929 55.4816 84.1534C55.9019 85.8511 56.945 87.4178 57.8336 88.9694C58.3171 89.8132 59.2133 90.055 60.2412 90.0475C66.7906 90.0072 73.3375 90.0248 79.8869 90.0299C80.3426 90.0299 80.7984 90.0676 81.2389 90.3674C60.1146 90.3674 38.9903 90.3674 17.8661 90.3674C17.8585 90.2767 17.8509 90.1835 17.8433 90.0928C18.2889 90.0702 18.7344 90.0299 19.1826 90.0299C26.4586 90.0248 33.7346 89.982 41.0106 90.0626C42.5549 90.0802 43.5296 89.4682 44.3474 88.3296C45.9803 86.0526 46.555 83.4053 46.7828 80.7203C47.2613 75.0655 47.4436 69.4007 46.6031 63.756C46.0917 60.3329 44.4461 57.7284 40.8942 56.9098C39.6081 56.6126 38.1726 56.9501 36.8435 56.998C37.008 55.5068 39.5524 55.3154 43.4638 56.8947C43.2461 56.6201 43.1651 56.4715 43.041 56.3708C39.5802 53.4918 35.646 52.1744 31.127 52.857C29.5548 53.0938 28.4409 54.26 28.2991 55.7385C28.1674 57.1163 29.0535 58.5319 30.4333 59.0634C31.527 59.484 32.5599 59.5344 33.3523 58.4287C33.5118 58.2045 33.8308 58.0937 34.1321 57.8921C34.3447 59.3077 33.7726 60.0684 32.4789 60.2876C30.408 60.6351 28.4991 59.4941 27.813 57.4967C27.0864 55.3834 27.7801 53.5623 29.7244 52.4842C29.8966 52.3885 30.0738 52.3004 30.4029 52.1265C26.3801 50.7261 22.6307 50.8495 19.0256 52.9049C18.6281 53.1316 18.3142 53.5598 18.0585 53.9577C17.5192 54.799 17.4256 55.6176 18.8332 56.2977C17.742 56.6478 17.2661 56.4287 16.9876 55.6831C16.6256 54.7109 17.1471 53.3104 18.18 52.6429C18.7117 52.3004 19.3142 52.0611 19.8509 51.6429C19.0205 51.8193 18.1952 52.1316 17.3623 52.1467C15.6509 52.1744 13.9141 52.192 12.2306 51.9376C10.223 51.6354 8.6584 52.192 7.35205 53.658C7.13939 53.8973 7.00015 54.2096 6.76724 54.4237C6.59002 54.5874 6.3166 54.6479 6.08369 54.7537C6.07103 54.4716 5.92926 54.0484 6.06343 53.9275C7.0356 53.061 8.05333 52.2424 9.08118 51.4414C9.28625 51.2827 9.59511 51.2525 9.68119 51.2248C8.40017 49.4012 7.13686 47.5775 5.83811 45.7791C5.6128 45.4668 5.27102 45.089 4.93937 45.0386C4.52671 44.9756 4.00012 45.1292 3.65835 45.3761C3.51151 45.4819 3.66594 46.0713 3.76468 46.4164C3.84316 46.6909 4.04316 46.9327 4.19 47.1897C4.09379 47.3005 4.00012 47.4088 3.90392 47.5196C3.4786 47.2224 2.74441 46.968 2.69378 46.6154C2.60264 45.9857 2.72922 45.1418 3.11404 44.6708C3.86341 43.7565 5.27862 43.8875 6.07609 44.8774C6.80521 45.7816 7.38497 46.8068 8.05333 47.7589C8.5065 48.4062 9.0027 49.0234 9.42549 49.5775C9.72423 48.5523 9.866 47.5272 10.3166 46.6632C10.8331 45.6708 12.1546 45.4491 12.9293 46.0637C13.1116 46.2073 13.1648 46.5096 13.2787 46.7388C13.0432 46.8143 12.7951 46.9831 12.5774 46.9529C10.9622 46.7262 10.1825 47.6128 10.6534 49.1795C11.1774 50.9276 13.2584 51.9225 15.4686 51.512C15.2281 50.9377 14.98 50.3457 14.6559 49.5649C15.1091 49.643 15.2863 49.6228 15.3243 49.6858C16.4154 51.4868 18.0509 51.2324 19.7218 50.8621C21.0914 50.5573 22.4585 50.2525 23.937 49.9251C22.418 48.847 20.9648 47.6783 19.38 46.7312C17.5041 45.6078 15.818 44.4265 15.0787 42.22C14.785 41.346 13.985 40.9858 13.0154 41.3712C12.8078 41.4543 12.5901 41.5097 12.1243 41.6608C12.466 40.346 13.2508 40.283 14.1673 40.4493C13.8028 39.4443 13.2863 38.9556 12.1065 38.7591C11.185 38.6055 10.2331 38.6231 9.29385 38.5652C9.26853 38.4065 9.24321 38.2478 9.2179 38.0916C9.9698 37.9456 10.7546 37.5828 11.466 37.6912C13.4888 37.9959 14.9445 39.1244 15.5648 41.1445C16.1116 42.9278 16.9977 44.4618 18.6737 45.4315C18.7775 45.492 18.8838 45.5524 18.9977 45.5927C19.0636 45.6154 19.142 45.5978 18.98 45.5978C18.7496 43.6885 18.5091 41.7616 18.2863 39.8347C18.1319 38.5047 17.7041 37.3511 16.504 36.5703C16.2686 36.4166 16.1952 36.0187 16.0458 35.734C16.4078 35.7491 16.8635 35.6333 17.1142 35.8096C17.5623 36.1194 17.8863 36.6055 18.2686 37.0237C19.018 34.3613 18.3319 32.5276 15.8635 31.18C16.5142 30.9936 16.9471 30.8702 17.38 30.7442C17.0281 29.4571 15.7294 28.4269 14.1698 28.2481C12.6382 28.0743 10.8255 28.8173 10.3622 30.044C10.1065 30.7216 10.2027 31.5906 10.3698 32.3235C10.423 32.5603 11.2002 32.6661 11.6584 32.7694C11.9546 32.8374 12.2762 32.7946 12.585 32.8021C12.3597 33.1371 12.2078 33.6358 11.8964 33.7744C11.0331 34.1547 9.93436 33.6132 9.46853 32.7064C8.74194 31.2959 9.13435 29.6637 10.4863 28.6335C12.147 27.3665 13.9926 27.1121 16.0838 27.8199C15.9395 27.3086 15.8078 26.9106 15.7167 26.5025C15.2939 24.6512 16.6863 22.6815 18.575 22.4447C19.7826 22.2936 20.7826 23.2129 20.5598 24.3993C20.4965 24.7368 19.9395 24.9837 19.6205 25.2658C19.6205 24.5101 19.7724 23.762 19.5901 23.6714C19.1269 23.4396 18.4382 23.3011 17.98 23.4799C16.6104 24.0164 16.0458 25.2456 16.6332 26.6209C17.3825 28.3816 18.342 30.0566 19.261 31.8651C19.9496 31.0515 20.4231 29.8752 21.9395 30.1397C21.7649 30.3992 21.6838 30.646 21.5193 30.7417C20.3117 31.4319 19.7421 32.5326 19.7041 33.8323C19.6307 36.3083 19.6838 38.7894 19.6838 41.4115C19.8864 41.1243 20.0433 40.8926 20.2079 40.6634C21.5193 38.8423 23.1952 37.7189 25.5522 38.0589C27.7244 38.3712 29.0181 40.6432 28.1826 42.5878C27.6788 43.759 26.2586 44.4366 25.0813 44.0789C24.4206 43.8774 24.1244 43.4366 24.3927 42.8119C24.4459 42.6885 25.051 42.8371 25.3927 42.7867C25.9978 42.6986 26.7776 42.7389 27.1447 42.3812C27.5067 42.0261 27.6788 41.1823 27.5345 40.6659C27.056 38.9556 24.8231 38.2251 23.1193 39.1067C20.4459 40.4921 20.0408 44.3938 22.3471 46.8043C24.3168 48.8521 26.9548 49.4163 29.9675 49.9352Z" fill="white"/>
<path d="M77.3325 12.9141C77.8186 10.2996 80.1756 9.37515 82.6237 10.7429C81.9072 12.3751 80.4693 13.2516 78.092 13.375C78.5249 12.831 78.8692 12.4003 79.211 11.9695C79.1756 11.9217 79.1376 11.8713 79.1022 11.8234C78.5452 12.166 77.9882 12.5111 77.3325 12.9141Z" fill="#7AED00"/>
<path d="M22.4102 11.9673C22.7621 12.3778 23.114 12.7859 23.5191 13.2569C21.5494 13.4458 20.0051 12.5894 18.9849 10.7784C20.0861 10.0227 21.2634 9.88169 22.4811 10.3829C23.5444 10.8187 24.2457 11.5895 24.314 12.8942C23.6811 12.5013 23.1216 12.1537 22.5596 11.8036C22.5089 11.859 22.4583 11.9119 22.4102 11.9673Z" fill="#7AED00"/>
<path d="M82.3525 20.9391C82.7905 18.5739 83.9956 17.574 86.2918 17.5186C86.4792 19.6747 85.2488 21.1935 82.9905 21.4681C83.3551 20.9316 83.6766 20.458 84.0007 19.9845C83.9652 19.9442 83.9298 19.9039 83.8943 19.8636C83.4209 20.1935 82.95 20.521 82.3525 20.9391Z" fill="#7AED00"/>
<path d="M10.7596 36.2838C10.1418 36.032 9.62031 35.8179 9.09626 35.6038C9.06841 35.6642 9.03803 35.7247 9.01018 35.7826C9.31904 36.0723 9.63044 36.3619 9.95956 36.6717C8.16713 37.2712 6.68104 36.7045 5.50635 35.0169C7.59244 33.5005 9.97728 34.027 10.7596 36.2838Z" fill="#7AED00"/>
<path d="M96.1427 34.9712C95.0085 36.6513 93.7402 37.1651 91.6389 36.7495C92.0338 36.3868 92.3629 36.0845 92.6921 35.7823C92.6693 35.7244 92.649 35.6664 92.6262 35.6085C92.0743 35.8201 91.5199 36.0317 90.9756 36.2407C91.4743 34.1299 93.7756 33.5305 96.1427 34.9712Z" fill="#7AED00"/>
<path d="M18.6686 21.4531C16.4585 21.2188 15.4028 19.9569 15.2812 17.5715C17.3496 17.3751 18.9319 18.6169 19.2307 20.846C18.6939 20.4934 18.2585 20.2088 17.823 19.9266C17.7775 19.9594 17.7319 19.9921 17.6863 20.0224C17.9825 20.4506 18.2762 20.8788 18.6686 21.4531Z" fill="#7AED00"/>
<path d="M27.8102 14.1558C26.5089 12.4606 27.0355 10.5689 29.0963 9.33472C30.1469 10.6898 29.9874 12.6495 28.6254 14.0248C28.5393 13.5009 28.4684 13.0525 28.395 12.6067C28.3343 12.5916 28.2735 12.5764 28.2102 12.5613C28.0862 13.0626 27.9596 13.5638 27.8102 14.1558Z" fill="#7AED00"/>
<path d="M73.1856 12.5686C73.1426 13.0371 73.097 13.5031 73.0515 14.0069C71.6793 12.7651 71.4844 11.2085 72.4236 9.3269C74.4869 10.2765 75.13 12.3042 73.8869 14.1479C73.7173 13.5686 73.5603 13.0397 73.4059 12.5082C73.3325 12.5309 73.2591 12.551 73.1856 12.5686Z" fill="#7AED00"/>
<path d="M75.426 52.1526C77.2564 51.1451 79.3349 52.1425 79.7906 54.2483C77.7855 54.8175 76.5779 54.4876 75.3931 52.9788C75.9095 52.9788 76.3652 52.9788 76.8209 52.9788C76.8488 52.9183 76.8766 52.8554 76.9019 52.7949C76.4083 52.5808 75.9146 52.3642 75.426 52.1526Z" fill="#7AED00"/>
<path d="M26.2486 52.1649C25.7626 52.3588 25.274 52.5528 24.7879 52.7467C24.8107 52.8147 24.8309 52.8853 24.8537 52.9533C25.279 52.9533 25.7043 52.9533 26.155 52.9533C25.3828 54.384 24.1423 54.7693 21.9043 54.3134C22.1246 52.2329 24.3777 51.1196 26.2486 52.1649Z" fill="#7AED00"/>
<path d="M34.9423 11.6417C34.5575 11.1203 34.284 10.7501 33.8461 10.1531C33.9245 10.8432 33.9701 11.2513 34.0258 11.7425C32.3321 10.9919 31.6359 9.69466 31.4258 8.04987C33.722 7.68968 35.1954 9.12289 34.9423 11.6417Z" fill="#7AED00"/>
<path d="M70.2058 7.98678C70.016 9.72729 69.3274 11.0169 67.5476 11.765C67.6767 11.2109 67.7754 10.7776 67.8767 10.3419C67.8311 10.3117 67.783 10.2839 67.7375 10.2537C67.4337 10.6366 67.1324 11.0194 66.8261 11.4073C66.1071 9.54845 67.659 7.89862 70.2058 7.98678Z" fill="#7AED00"/>
<path d="M70.788 55.7845C68.6133 55.8903 67.8842 55.6258 66.7475 54.306C67.1804 54.2657 67.55 54.2329 68.2665 54.1649C67.5931 53.84 67.1753 53.636 66.7222 53.4194C68.745 52.5252 70.6412 53.6385 70.788 55.7845Z" fill="#7AED00"/>
<path d="M34.975 53.3865C34.4104 53.6535 33.9978 53.8475 33.5826 54.0439C33.5978 54.0994 33.6155 54.1548 33.6307 54.2127C34.018 54.2127 34.4079 54.2127 34.8358 54.2127C34.0585 55.5779 32.6205 56.0792 30.8281 55.6661C31.2205 53.4923 32.8028 52.5881 34.975 53.3865Z" fill="#7AED00"/>
<path d="M85.7248 47.714C84.7121 49.9986 83.2235 50.6257 81.4614 49.5754C81.9247 49.4444 82.3475 49.326 82.7678 49.2076C82.7678 49.1447 82.7678 49.0817 82.7678 49.0213C82.3855 48.9507 82.0007 48.8827 81.5095 48.792C82.7323 47.5276 84.0741 47.2681 85.7248 47.714Z" fill="#7AED00"/>
<path d="M20.1014 48.8756C19.59 48.9033 19.2356 48.9209 18.8837 48.9386C18.866 49.0116 18.8457 49.0847 18.828 49.1552C19.2685 49.2937 19.7115 49.4298 20.1394 49.5633C18.5723 50.6841 16.9849 50.0418 15.9697 47.8555C17.4001 47.1553 18.828 47.4726 20.1014 48.8756Z" fill="#7AED00"/>
<path d="M34.6968 32.9567C34.6968 33.6846 34.6968 34.138 34.6968 34.604C33.0765 33.3799 33.3018 31.4026 35.2208 30.2036C35.8664 31.5008 36.2993 32.7879 35.4208 34.2967C35.1955 33.8761 35.0107 33.5335 34.6968 32.9567Z" fill="#7AED00"/>
<path d="M41.894 22.7075C40.3447 21.03 40.6434 19.3096 42.5498 18.1157C43.1649 19.4331 43.527 20.7026 42.4966 22.1484C42.3168 21.7504 42.1827 21.4557 42.051 21.1635C41.9978 21.1685 41.9472 21.1736 41.894 21.1786C41.894 21.6169 41.894 22.0552 41.894 22.7075Z" fill="#7AED00"/>
<path d="M59.8183 22.5005C59.8183 22.0723 59.8183 21.6844 59.8183 21.0043C59.5145 21.4854 59.3525 21.7424 59.188 22.0068C59.1196 21.9842 59.0183 21.9842 58.9956 21.9413C58.3221 20.7298 58.35 19.7575 59.0943 18.1782C60.9703 19.0699 61.3601 21.2235 59.8183 22.5005Z" fill="#7AED00"/>
<path d="M35.1927 5.71012C34.8408 5.54891 34.5395 5.41038 33.9902 5.15849C34.2838 5.64966 34.4509 5.92674 34.6256 6.2164C34.5623 6.27182 34.5066 6.35997 34.4611 6.35494C32.8408 6.16099 31.8661 5.25673 31.4585 3.6875C33.6509 3.33486 34.818 3.95449 35.1927 5.71012Z" fill="#7AED00"/>
<path d="M66.9625 34.6414C66.9625 34.1477 66.9625 33.7044 66.9625 32.9034C66.6435 33.5483 66.4764 33.8833 66.2992 34.246C65.527 32.9211 65.5701 31.9261 66.4359 30.231C68.2815 31.2561 68.5524 33.2712 66.9625 34.6414Z" fill="#7AED00"/>
<path d="M94.1072 41.5229C95.1021 43.1249 94.9148 44.5153 93.4742 45.7193C93.4742 45.2307 93.4742 44.7999 93.4742 44.1022C93.135 44.6866 92.9274 45.0443 92.6717 45.48C92.1375 43.6362 92.573 42.5003 94.1072 41.5229Z" fill="#7AED00"/>
<path d="M8.96472 45.4443C8.72168 45.0614 8.50143 44.7189 8.10142 44.0892C8.17737 44.8473 8.22041 45.2629 8.26598 45.7188C6.75204 44.6886 6.52926 43.4217 7.48116 41.5376C9.00776 42.2857 9.59005 43.7642 8.96472 45.4443Z" fill="#7AED00"/>
<path d="M87.0897 36.8025C86.8847 38.3339 86.3961 39.5606 84.7707 40.2583C84.9024 39.747 84.9935 39.3944 85.0847 39.0392C85.029 39.014 84.9758 38.9863 84.9201 38.9611C84.6593 39.2835 84.3986 39.6085 84.1201 39.9535C83.7581 38.009 84.7581 36.9158 87.0897 36.8025Z" fill="#7AED00"/>
<path d="M15.2989 54.2707C14.0609 55.6888 13.3141 55.9835 11.6406 55.8424C11.8685 53.7014 13.4179 52.7417 15.3166 53.5981C14.8862 53.7594 14.4736 53.913 14.0584 54.0692C14.0736 54.1372 14.0888 54.2027 14.1039 54.2707C14.4457 54.2707 14.7875 54.2707 15.2989 54.2707Z" fill="#7AED00"/>
<path d="M16.5165 38.7141C16.6532 39.3892 16.7292 39.7544 16.833 40.2632C15.2886 39.5151 14.6988 38.3867 14.6431 36.888C16.7114 36.7872 17.8077 37.8804 17.6279 39.9534C17.2937 39.5831 17.0279 39.2859 16.5165 38.7141Z" fill="#7AED00"/>
<path d="M39.3269 3.4707C39.7826 5.04245 39.6535 6.3472 38.2712 7.48068C38.2712 6.98447 38.2712 6.62427 38.2712 6.04494C37.9547 6.45803 37.7395 6.7351 37.5243 7.01469C36.7724 5.58652 37.5243 4.0853 39.3269 3.4707Z" fill="#7AED00"/>
<path d="M66.312 5.8286C66.9753 3.86644 67.9829 3.33496 70.107 3.68004C69.7652 5.39033 68.8412 6.16613 66.9019 6.29459C67.2057 5.91424 67.4715 5.58428 67.9551 4.97976C67.2513 5.33995 66.8513 5.54901 66.312 5.8286Z" fill="#7AED00"/>
<path d="M50.8842 0C52.1982 1.36269 52.3399 2.58683 51.3602 4.214C51.2184 3.75557 51.0944 3.3576 50.9121 2.76315C50.7526 3.31729 50.6412 3.70016 50.5197 4.1208C49.4716 2.80597 49.5804 1.53648 50.8842 0Z" fill="#7AED00"/>
<path d="M63.3754 7.48095C61.9019 6.36007 62.0361 4.96464 62.2564 3.5415C63.9323 3.85384 64.6235 5.05028 64.2817 7.21899C63.9905 6.82605 63.7602 6.51876 63.4386 6.083C63.4159 6.63714 63.3981 7.02252 63.3754 7.48095Z" fill="#7AED00"/>
<path d="M19.8634 13.9296C19.3089 13.9296 18.9596 13.9296 18.6077 13.9296C18.5899 13.9875 18.5722 14.0454 18.5545 14.1034C18.8785 14.2621 19.2026 14.4233 19.638 14.6374C18.1697 15.4283 16.914 15.0227 15.6431 14.3477C16.6659 12.7105 18.2785 12.4989 19.8634 13.9296Z" fill="#7AED00"/>
<path d="M83.1225 13.9495C82.7706 13.9318 82.4187 13.9142 82.0491 13.8966C82.9731 12.4936 84.5731 12.6044 86.0542 14.2341C84.8162 15.1459 83.5352 15.3147 81.9326 14.69C82.4288 14.4658 82.7833 14.3021 83.1402 14.1409C83.1352 14.0754 83.1301 14.0124 83.1225 13.9495Z" fill="#7AED00"/>
<path d="M86.3604 53.5907C88.2135 52.7318 89.7047 53.631 90.0161 55.8627C88.5832 56.034 87.4186 55.631 86.4363 54.3741C86.8971 54.3162 87.249 54.2733 87.9173 54.1902C87.211 53.9182 86.7882 53.7545 86.3604 53.5907Z" fill="#7AED00"/>
<path d="M81.6437 25.8076C83.145 27.2509 83.3805 28.2584 82.4919 29.7546C82.3627 29.3415 82.2513 28.9839 82.0437 28.3139C81.8893 28.9662 81.8108 29.2912 81.7323 29.6262C80.5425 28.334 80.5121 26.8076 81.6437 25.8076Z" fill="#7AED00"/>
<path d="M20.1063 25.7192C21.1063 27.1499 21.0632 28.2784 19.9392 29.5856C19.8404 29.2003 19.7544 28.8753 19.6177 28.3489C19.4202 28.9106 19.2809 29.2985 19.1442 29.6839C18.2455 28.2935 18.4936 27.2179 20.1063 25.7192Z" fill="#7AED00"/>
<path d="M78.4942 26.8154C78.3727 28.3241 77.8132 29.4299 76.2588 29.979C76.3398 29.6188 76.4031 29.3342 76.5069 28.8783C76.155 29.1201 75.9195 29.2813 75.5854 29.508C75.5676 29.3216 75.5246 29.1881 75.5449 29.0596C75.7752 27.5609 76.7676 26.7801 78.4942 26.8154Z" fill="#7AED00"/>
<path d="M26.0511 29.5631C25.6815 29.2331 25.4283 29.0039 24.9549 28.5808C25.1701 29.1727 25.2865 29.4901 25.408 29.8251C23.9802 29.5304 23.4004 28.7672 23.1802 26.9158C24.7954 26.5733 26.0005 27.6211 26.0511 29.5631Z" fill="#7AED00"/>
<path d="M54.8358 41.6992C54.8206 41.3793 54.808 41.0594 54.7776 40.397C54.4535 41.0342 54.2839 41.3692 54.0966 41.737C53.327 39.9259 54.3953 38.5658 56.7067 38.7068C56.17 39.8101 55.6814 40.8151 55.1903 41.8201C55.0738 41.7798 54.9548 41.7395 54.8358 41.6992Z" fill="#7AED00"/>
<path d="M46.5548 41.9257C46.0384 40.9131 45.5194 39.9031 45.0029 38.8905C45.1295 38.7469 45.2561 38.6008 45.3827 38.4573C46.0409 38.7746 46.808 38.9711 47.327 39.4371C47.9954 40.0366 48.0663 40.8955 47.57 41.8199C47.3827 41.4119 47.2283 41.0769 46.9498 40.4673C46.8941 41.092 46.8612 41.4471 46.8283 41.8023C46.7371 41.8451 46.646 41.8854 46.5548 41.9257Z" fill="#7AED00"/>
<path d="M37.6968 57.9127C37.4436 58.1117 37.2259 58.2804 36.8993 58.5348C37.3094 58.5953 37.5651 58.6305 37.8689 58.6759C37.0841 59.9454 36.0107 60.429 34.5879 60.2426C34.9221 58.2981 35.9423 57.5273 37.6968 57.9127Z" fill="#7AED00"/>
<path d="M63.7827 58.6132C64.1827 58.646 64.5118 58.6737 65.1017 58.7216C64.6106 58.374 64.3321 58.175 64.0511 57.976C65.5372 57.4092 66.7549 58.2934 66.9929 60.1145C65.6055 60.4621 64.7245 60.0691 63.7827 58.6132Z" fill="#7AED00"/>
<path d="M81.0136 37.4571C80.7757 37.0667 80.6162 36.8073 80.3174 36.3161C80.3174 36.8879 80.3174 37.2027 80.3174 37.5856C79.044 36.5856 78.8465 35.6486 79.4972 34.0391C80.9579 34.6713 81.4263 35.6587 81.0136 37.4571Z" fill="#7AED00"/>
<path d="M21.3926 36.306C21.0609 36.7821 20.8837 37.0339 20.709 37.2833C20.6331 37.243 20.5242 37.2153 20.5192 37.1775C20.309 35.4975 20.6711 34.7695 22.0685 34.0391C22.7698 35.3766 22.585 36.5 21.3926 37.6511C21.3926 37.238 21.3926 36.903 21.3926 36.306Z" fill="#7AED00"/>
<path d="M62.33 60.406C60.9755 60.6478 59.7578 60.7234 58.6768 59.6151C59.1071 59.5572 59.4388 59.5118 60.0616 59.4262C59.4793 59.1768 59.1704 59.0459 58.8565 58.9099C60.3021 58.0761 61.6186 58.6101 62.33 60.406Z" fill="#7AED00"/>
<path d="M86.1753 44.2081C86.9601 42.5079 88.2183 42.1502 90.0715 43.2585C88.9373 43.9084 87.9626 44.4676 86.9905 45.0242C86.912 44.9134 86.8335 44.8001 86.755 44.6892C86.9297 44.4449 87.1044 44.2006 87.3829 43.8076C86.9247 43.9588 86.6082 44.0646 86.1753 44.2081Z" fill="#7AED00"/>
<path d="M39.4004 60.4188C39.9143 58.7111 41.0713 58.1897 42.8713 58.8471C42.4764 59.0259 42.1574 59.1695 41.5827 59.4289C42.1979 59.5171 42.5346 59.5624 42.9498 59.6229C41.9245 60.711 40.727 60.6556 39.4004 60.4188Z" fill="#7AED00"/>
<path d="M11.7949 43.0642C13.4734 42.1927 14.6962 42.5302 15.3469 44.0667C15.0051 43.9861 14.7215 43.9206 14.2633 43.8148C14.5317 44.1674 14.719 44.4143 14.9823 44.7619C13.519 44.8324 12.6228 44.1321 11.7949 43.0642Z" fill="#7AED00"/>
<path d="M76.7477 9.62234C76.5654 9.17903 76.4641 8.93218 76.2844 8.49139C76.1325 8.9347 76.0388 9.20673 75.9451 9.47373C75.2489 9.35534 74.9401 7.64002 75.3527 6.3252C76.854 6.76095 77.3831 7.87176 76.7477 9.62234Z" fill="#7AED00"/>
<path d="M59.2688 4.4529C58.9751 4.27407 58.76 4.14057 58.3903 3.91387C58.5372 4.34459 58.6308 4.62167 58.7954 5.11032C58.3169 4.82821 57.922 4.69723 57.6739 4.42772C56.9675 3.66199 56.727 2.77537 57.2789 1.67212C58.327 2.31442 59.3144 2.91642 59.2688 4.4529Z" fill="#7AED00"/>
<path d="M2.72656 49.7616C3.92151 48.0791 5.26836 47.9959 6.56204 49.3082C6.21014 49.3082 5.91647 49.3082 5.4076 49.3082C5.75697 49.613 5.95951 49.7893 6.16457 49.9682C6.14685 50.079 6.12913 50.1873 6.11141 50.2981C5.05064 50.1294 3.98733 49.9606 2.72656 49.7616Z" fill="#7AED00"/>
<path d="M87.75 20.3894C88.7019 22.0846 88.5753 22.9813 87.2766 24.0216C87.3221 23.6311 87.3576 23.3037 87.4234 22.7193C87.074 23.14 86.8892 23.3616 86.6006 23.7092C86.2538 22.2659 86.6842 21.276 87.75 20.3894Z" fill="#7AED00"/>
<path d="M25.6381 9.69696C25.5698 9.27631 25.5242 8.98161 25.4356 8.42999C25.1951 8.97406 25.0584 9.27883 24.9166 9.60376C24.233 8.05972 24.6153 7.05723 26.1571 6.2915C26.7925 7.41994 26.6837 8.29901 25.6381 9.69696Z" fill="#7AED00"/>
<path d="M95.4691 49.9609C95.7122 49.7947 95.9552 49.6284 96.383 49.3387C95.8489 49.3387 95.5577 49.3387 95.2261 49.3387C96.2311 47.9937 97.7425 48.0718 98.8894 49.6989C97.7046 49.9382 96.6311 50.1523 95.5602 50.3689C95.5299 50.2329 95.4995 50.0969 95.4691 49.9609Z" fill="#7AED00"/>
<path d="M42.8638 4.94934C42.998 4.637 43.1145 4.37001 43.3499 3.82594C42.8891 4.14079 42.6588 4.29948 42.4233 4.45817C42.0284 3.76801 42.9524 2.50356 44.3474 1.71265C45.0512 3.25417 44.5524 4.38512 42.8638 4.94934Z" fill="#7AED00"/>
<path d="M46.8184 13.834C45.0032 14.7962 43.8944 14.3705 43.502 12.4512C44.6007 12.5847 45.6159 12.7081 46.6311 12.834C46.6311 12.9272 46.6311 13.0179 46.6286 13.1111C46.3678 13.2194 46.1096 13.3252 45.6184 13.5292C46.1349 13.6577 46.4159 13.7307 46.8184 13.834Z" fill="#7AED00"/>
<path d="M13.861 20.4045C15.0483 21.2232 15.2686 22.2836 15.0711 23.6891C14.78 23.349 14.5825 23.1173 14.18 22.6488C14.2863 23.2886 14.342 23.6186 14.4104 24.0291C13.066 23.004 12.942 22.1904 13.861 20.4045Z" fill="#7AED00"/>
<path d="M31.4939 27.9368C31.4129 27.5539 31.3674 27.3272 31.2838 26.9343C31.0686 27.3322 30.9193 27.6093 30.7041 28.0098C30.6003 27.6295 30.4686 27.3499 30.456 27.0627C30.4129 26.03 30.9572 25.3953 32.4003 24.8235C32.7142 26.0073 32.4535 26.9771 31.4939 27.9368Z" fill="#7AED00"/>
<path d="M55.0459 12.8309C56.0535 12.6999 57.0586 12.5664 58.1041 12.4304C57.9041 14.2792 56.6383 14.8183 54.8408 13.841C55.2459 13.7478 55.5497 13.6798 56.056 13.5639C55.6155 13.3624 55.3497 13.2415 55.0813 13.1181C55.0712 13.0223 55.0585 12.9266 55.0459 12.8309Z" fill="#7AED00"/>
<path d="M42.3218 30.0218C44.1826 29.5609 44.9421 29.8656 45.5269 31.314C45.2079 31.2082 44.937 31.1175 44.537 30.984C44.6914 31.3089 44.7826 31.5029 44.8686 31.6842C44.3395 32.2333 42.7825 31.2308 42.3218 30.0218Z" fill="#7AED00"/>
<path d="M46.7524 18.1382C47.5246 17.5538 48.2993 16.9669 49.1651 16.312C49.6385 18.1835 48.8765 19.1281 47.0335 19.1633C47.2917 18.8913 47.4892 18.6822 47.8107 18.3447C47.4031 18.3825 47.1651 18.4026 46.9246 18.4253C46.8664 18.3296 46.8107 18.2339 46.7524 18.1382Z" fill="#7AED00"/>
<path d="M6.89645 38.2407C6.66354 38.3565 6.43062 38.4749 6.05087 38.6663C6.43316 38.7923 6.68632 38.8754 6.99519 38.9762C5.64834 39.82 4.67618 39.6613 3.47363 38.2029C4.71668 38.0467 5.75214 37.9183 6.78506 37.7898C6.82303 37.9384 6.85848 38.0895 6.89645 38.2407Z" fill="#7AED00"/>
<path d="M56.5702 31.828C56.8183 31.5106 56.9601 31.3293 57.2335 30.9792C56.788 31.1026 56.5221 31.1782 56.1753 31.2739C56.2057 31.1051 56.1905 30.9439 56.2588 30.8406C56.9399 29.7978 57.7702 29.5863 59.3981 30.0724C58.8892 31.2663 58.0183 31.8305 56.5702 31.828Z" fill="#7AED00"/>
<path d="M10.9092 23.3169C12.2788 23.4932 13.0029 24.1909 13.2991 25.4982C13.0231 25.4327 12.813 25.3823 12.4611 25.2992C12.6206 25.604 12.7396 25.8256 12.856 26.0473C12.7927 26.075 12.7168 26.138 12.6687 26.1229C11.3649 25.6695 11.0282 25.1607 10.9092 23.3169Z" fill="#7AED00"/>
<path d="M54.6058 19.1357C52.9121 19.2037 52.1906 18.4103 52.3323 16.2693C53.3045 16.9544 54.1146 17.5237 54.9222 18.0929C54.8691 18.1987 54.8159 18.3045 54.7627 18.4103C54.5197 18.3952 54.2741 18.3801 53.8741 18.3574C54.1602 18.6647 54.3729 18.8889 54.6058 19.1357Z" fill="#7AED00"/>
<path d="M94.6187 38.9484C94.9174 38.8703 95.1706 38.8023 95.5807 38.694C95.2136 38.4925 94.9655 38.3539 94.7174 38.2179C94.7402 38.0894 94.763 37.961 94.7857 37.8325C95.8389 37.9282 96.8921 38.0214 98.0744 38.1297C97.1782 39.6511 95.9858 39.8703 94.6187 38.9484Z" fill="#7AED00"/>
<path d="M88.3579 25.4925C88.6718 24.1575 89.3959 23.4925 90.6187 23.3389C90.8516 24.8754 90.3402 25.6713 88.7655 26.1348C88.9402 25.8174 89.0744 25.5731 89.2794 25.2028C88.9199 25.3161 88.7073 25.3842 88.3579 25.4925Z" fill="#7AED00"/>
<path d="M75.1045 57.2248C75.2767 57.2475 75.4488 57.2727 75.7121 57.3079C75.6488 57.0586 75.5931 56.8394 75.5248 56.575C77.1121 57.0762 77.4488 57.7387 76.9653 59.7764C76.1754 58.9225 75.5222 58.2172 74.8716 57.5145C74.9501 57.4188 75.026 57.3205 75.1045 57.2248Z" fill="#7AED00"/>
<path d="M26.1751 56.6077C26.0283 56.8772 25.9068 57.0963 25.7017 57.4716C26.0688 57.3457 26.2966 57.2701 26.522 57.192C26.608 57.2676 26.6941 57.3432 26.7777 57.4187C26.1625 58.1567 25.5473 58.8922 24.8688 59.7058C23.9878 58.124 24.5346 56.9754 26.1751 56.6077Z" fill="#7AED00"/>
<path d="M17.405 34.3118C17.1645 34.2135 16.9645 34.1329 16.6809 34.0171C16.7265 34.2715 16.762 34.4755 16.7974 34.6795C16.7139 34.7652 16.6303 34.8508 16.5493 34.9339C15.8556 34.2639 15.1594 33.5939 14.3037 32.7703C16.2734 32.3345 16.9797 32.7451 17.405 34.3118Z" fill="#7AED00"/>
<path d="M70.8311 28.1096C70.7045 27.6437 70.6235 27.354 70.4691 26.7822C70.2817 27.2986 70.1855 27.558 70.0918 27.8175C69.988 27.8401 69.8842 27.8628 69.7804 27.8829C69.5247 26.9157 69.2665 25.9485 68.9678 24.8125C70.9982 25.3994 71.4893 26.3062 70.8311 28.1096Z" fill="#7AED00"/>
<path d="M62.3804 45.3116C62.5323 45.1983 62.6842 45.0849 62.9374 44.896C62.6336 44.8079 62.4032 44.7424 62.1323 44.6643C62.1931 44.566 62.2285 44.4376 62.307 44.3973C63.4741 43.8104 64.2944 44.0069 65.5172 45.3973C64.3425 45.5308 63.4058 45.6391 62.4665 45.7474C62.4361 45.6038 62.4083 45.4577 62.3804 45.3116Z" fill="#7AED00"/>
<path d="M32.2357 41.5133C32.6104 41.6518 32.8484 41.74 33.0864 41.8256C33.0864 41.8961 33.0864 41.9641 33.0864 42.0347C32.6332 42.0876 32.1167 42.3042 31.7421 42.1581C31.1117 41.9138 30.5724 41.4402 29.9927 41.0624C30.0686 40.8685 30.1446 40.677 30.2205 40.4856C31.1496 40.5813 32.0788 40.6795 33.0104 40.7753C33.013 40.876 33.013 40.9793 33.0155 41.08C32.7978 41.2009 32.58 41.3218 32.2357 41.5133Z" fill="#7AED00"/>
<path d="M36.165 45.4446C37.3068 43.9484 38.1575 43.7696 39.5625 44.6159C39.2486 44.7041 39.0258 44.7671 38.679 44.8653C38.9094 45.0441 39.0866 45.1801 39.2638 45.3187C39.2461 45.4497 39.2258 45.5781 39.2081 45.7091C38.2537 45.626 37.2992 45.5429 36.165 45.4446Z" fill="#7AED00"/>
<path d="M84.8338 34.6837C84.8971 34.4796 84.9604 34.2756 85.0591 33.9633C84.7604 34.0867 84.5401 34.1749 84.2769 34.2832C84.6667 32.7668 85.2667 32.4066 87.3857 32.6636C86.5123 33.5477 85.8237 34.2454 85.1351 34.9431C85.0338 34.8575 84.9326 34.7718 84.8338 34.6837Z" fill="#7AED00"/>
<path d="M71.6335 40.3975C71.0006 42.1531 70.236 42.478 68.4512 41.9163C68.7803 41.7652 69.0157 41.6544 69.3752 41.4906C69.0562 41.3269 68.8335 41.211 68.6081 41.0977C68.6005 41.0045 68.5929 40.9113 68.5854 40.8181C69.5373 40.6871 70.4892 40.5561 71.6335 40.3975Z" fill="#7AED00"/>
<path d="M24.3976 33.3346C24.2128 33.2238 24.0305 33.113 23.7065 32.919C23.8179 33.317 23.8938 33.584 23.9824 33.9064C22.6027 33.0626 22.4255 32.2666 23.3622 30.4707C23.8888 31.4581 24.3242 32.2717 24.7597 33.0878C24.6381 33.1709 24.5192 33.2515 24.3976 33.3346Z" fill="#7AED00"/>
<path d="M47.507 26.0222C48.7956 26.2943 49.4285 27.0146 49.5779 28.3647C49.2539 28.1632 49.0437 28.0348 48.7045 27.8257C48.8184 28.1909 48.8842 28.4025 48.9501 28.6141C48.1981 28.8635 47.4285 27.5436 47.507 26.0222Z" fill="#7AED00"/>
<path d="M45.8081 9.04991C46.2182 9.25645 46.3549 9.32698 46.6106 9.45544C46.5676 9.15066 46.5347 8.93404 46.4942 8.64941C47.9347 9.52597 47.9727 10.5939 46.5094 11.8206C46.2739 10.8912 46.0663 10.0675 45.8081 9.04991Z" fill="#7AED00"/>
<path d="M55.1245 11.8862C53.727 10.5033 53.7827 9.49579 55.165 8.63184C55.0941 8.94417 55.041 9.17842 54.9676 9.49076C55.246 9.34718 55.4359 9.24895 55.8663 9.02981C55.5954 10.0676 55.3828 10.8912 55.1245 11.8862Z" fill="#7AED00"/>
<path d="M77.6389 34.0268C77.7706 33.5759 77.8415 33.3291 77.9528 32.9513C77.6668 33.0848 77.4845 33.1704 77.3022 33.256C77.1984 33.2032 77.0921 33.1503 76.9883 33.0974C77.3554 32.3064 77.7225 31.5181 78.1579 30.5811C79.2389 32.0042 79.0946 32.8556 77.6389 34.0268Z" fill="#7AED00"/>
<path d="M38.5347 32.765C39.7347 31.4753 40.3625 31.4527 41.6334 32.3494C41.3499 32.4249 41.1322 32.4829 40.8765 32.5509C40.9955 32.7322 41.0967 32.8808 41.1955 33.0294C41.1676 33.1327 41.1398 33.2335 41.1144 33.3367C40.2537 33.1453 39.3954 32.9564 38.5347 32.765Z" fill="#7AED00"/>
<path d="M14.4101 30.1479C13.4202 30.6819 12.7063 31.0698 11.9265 31.4905C11.6885 29.8079 12.3493 29.1354 13.9721 29.2185C13.8253 29.4074 13.6936 29.5762 13.5518 29.7525C13.7645 29.8507 13.9392 29.9313 14.4101 30.1479Z" fill="#7AED00"/>
<path d="M60.1094 32.3013C61.2638 31.4374 61.8664 31.4575 63.0765 32.392C62.117 33.2862 62.117 33.2862 60.1094 32.3013Z" fill="#7AED00"/>
<path d="M71.0308 20.6391C70.7498 20.4502 70.5954 20.347 70.3473 20.1807C70.3346 20.4578 70.3245 20.6794 70.3144 20.9011C70.2004 20.9389 70.0865 20.9792 69.9726 21.017C69.5979 20.2059 69.2232 19.3948 68.7827 18.4478C70.4941 18.6039 70.8688 18.9918 71.0308 20.6391Z" fill="#7AED00"/>
<path d="M63.0437 12.6393C62.7576 12.9491 62.5854 13.138 62.2183 13.536C61.6614 12.9894 61.036 12.3773 60.2993 11.6544C61.8841 11.1985 62.5019 11.4983 63.0437 12.6393Z" fill="#7AED00"/>
<path d="M41.4382 11.5993C40.5699 12.4179 39.9268 13.025 39.2838 13.632C39.1927 13.5489 39.099 13.4683 39.0078 13.3852C39.0965 13.1988 39.1851 13.0124 39.3446 12.6799C39.0028 12.8083 38.7724 12.8965 38.418 13.03C38.5876 12.6774 38.6737 12.3726 38.8534 12.1434C39.3952 11.4532 40.1041 11.2139 41.4382 11.5993Z" fill="#7AED00"/>
<path d="M89.7374 31.5256C88.8614 31.0219 88.1272 30.6012 87.188 30.0597C87.6893 29.9111 87.9019 29.8456 88.1804 29.7625C87.9728 29.5786 87.8082 29.43 87.4968 29.1504C87.9905 29.1756 88.3627 29.1076 88.6589 29.2234C89.5273 29.571 89.9829 30.2058 89.7374 31.5256Z" fill="#7AED00"/>
<path d="M51.8789 27.8785C52.5321 27.2034 53.1853 26.5284 54.0485 25.6367C54.3042 27.2185 54.041 28.1203 52.7675 28.7298C52.8131 28.4074 52.8409 28.211 52.8865 27.9011C52.6156 28.0246 52.4004 28.1253 52.1827 28.2261C52.0814 28.1102 51.9802 27.9943 51.8789 27.8785Z" fill="#7AED00"/>
<path d="M32.7473 18.5432C32.4258 19.3417 32.1043 20.1402 31.7802 20.9386C31.679 20.9134 31.5777 20.8882 31.4764 20.8605C31.4081 20.6565 31.3397 20.45 31.2056 20.0545C31.0106 20.3089 30.8764 20.4852 30.6891 20.7296C30.6891 20.3467 30.565 19.9462 30.7119 19.7598C31.165 19.1906 31.722 18.7044 32.2385 18.1855C32.4081 18.3039 32.5777 18.4248 32.7473 18.5432Z" fill="#7AED00"/>
<path d="M92.2972 53.2004C93.5529 53.2256 94.0263 53.679 94.0288 55.354C93.1478 54.9158 92.3858 54.5379 91.7959 54.2432C92.0187 53.7798 92.1402 53.5279 92.2972 53.2004Z" fill="#7AED00"/>
<path d="M39.1904 47.9586C40.1094 47.7671 41.031 47.5757 41.9499 47.3843C41.9753 47.5027 41.9981 47.6185 42.0234 47.7369C40.2968 48.9711 40.2968 48.9711 39.2968 48.3968C39.2613 48.2508 39.2259 48.1047 39.1904 47.9586Z" fill="#7AED00"/>
<path d="M9.65858 53.1499C9.4839 53.427 9.38516 53.5806 9.24592 53.8023C9.49908 53.825 9.70921 53.8451 9.91681 53.8653C9.95732 53.9408 9.99782 54.0164 10.0383 54.0919C9.30668 54.505 8.57756 54.9156 7.81046 55.3488C7.42565 53.8703 7.88135 53.3338 9.65858 53.1499Z" fill="#7AED00"/>
<path d="M90.8617 39.1426C91.7149 39.3567 92.5681 39.5683 93.4212 39.7824C93.4035 39.9864 93.3883 40.1904 93.3706 40.397C92.4617 40.4977 91.5554 40.601 90.6465 40.7017C90.6187 40.5632 90.5908 40.4247 90.563 40.2861C90.7301 40.1954 90.8972 40.1023 91.1402 39.9688C90.9782 39.8176 90.8364 39.6841 90.6921 39.5481C90.7478 39.4121 90.8035 39.2761 90.8617 39.1426Z" fill="#7AED00"/>
<path d="M11.0634 39.5757C10.8406 39.6966 10.6861 39.7798 10.4583 39.9032C10.6785 40.0342 10.8634 40.1425 11.0482 40.2533C10.9545 40.8956 9.44309 40.8351 8.38232 40.1475C9.20512 39.1576 9.69373 39.0417 11.0634 39.5757Z" fill="#7AED00"/>
<path d="M60.3701 48.0971C60.0081 47.9888 59.798 47.9258 59.5752 47.8603C59.6284 47.7747 59.6537 47.6815 59.7068 47.6588C60.7474 47.1978 61.6233 47.4422 62.6942 48.5782C61.5423 48.7066 60.6967 48.7998 59.8486 48.8955C59.7853 48.7419 59.722 48.5857 59.6587 48.4321C59.8638 48.3338 60.0663 48.2406 60.3701 48.0971Z" fill="#7AED00"/>
<path d="M97.1198 43.3541C95.9958 42.2382 96.5882 41.47 97.6084 40.7471C98.3553 41.8856 98.2337 42.4926 97.1198 43.3541Z" fill="#7AED00"/>
<path d="M0 42.0942C1.09875 42.3235 1.87597 42.4847 2.68104 42.6534C2.49876 43.1093 2.39749 43.3662 2.20002 43.8549C1.33925 43.9884 0.610133 43.535 0 42.0942Z" fill="#7AED00"/>
<path d="M99.5454 43.2487C99.3251 43.1707 99.1479 43.1102 98.9707 43.0472C98.9479 42.9565 98.9251 42.8659 98.9023 42.7777C99.6872 42.5561 100.472 42.3319 101.356 42.0825C101.158 43.5308 100.652 43.8734 99.0973 43.7852C99.2568 43.5963 99.3935 43.4326 99.5454 43.2487Z" fill="#7AED00"/>
<path d="M35.5775 19.9917C36.2787 20.6365 36.8332 21.1428 37.5775 21.8254C37.0661 21.8682 36.8838 21.8808 36.6357 21.901C36.7623 22.1125 36.8737 22.2989 37.0661 22.6188C36.6762 22.5005 36.3572 22.4727 36.1243 22.3191C35.3547 21.8078 35.218 21.1 35.5775 19.9917Z" fill="#7AED00"/>
<path d="M21.8509 23.2944C22.4889 23.3776 23.1851 23.3373 23.737 23.5992C24.0079 23.7277 24.013 24.4128 24.1395 24.8485C24.013 24.9493 23.8864 25.0501 23.7573 25.1533C23.0585 24.6999 22.3623 24.2465 21.6636 23.7932C21.7269 23.6269 21.7902 23.4607 21.8509 23.2944Z" fill="#7AED00"/>
<path d="M77.9906 25.153C77.6767 24.6367 77.54 24.4075 77.3501 24.0951C77.859 23.1934 78.7678 23.1934 80.2033 23.541C79.2919 24.2034 78.6261 24.6896 77.9906 25.153Z" fill="#7AED00"/>
<path d="M4.64293 43.3795C3.47077 42.6969 3.30621 42.0873 3.94166 40.7876C4.44799 41.0848 4.44799 41.0848 4.64293 43.3795Z" fill="#7AED00"/>
<path d="M64.7452 22.5332C64.7047 22.1226 64.487 21.6012 64.6617 21.3216C64.9553 20.8556 65.4971 20.5433 65.9705 20.1353C66.5452 21.5559 66.1503 22.2082 64.7452 22.5332Z" fill="#7AED00"/>
<path d="M8.65086 28.8984C7.33946 29.0294 6.99768 28.7901 6.63818 27.168C7.4787 27.4199 8.20022 27.634 8.76479 27.8027C8.71922 28.2485 8.69137 28.5055 8.65086 28.8984Z" fill="#7AED00"/>
<path d="M92.5883 28.8587C92.8743 28.6773 93.0591 28.5589 93.2921 28.4103C93.0794 28.2743 92.93 28.1786 92.5781 27.9544C93.406 27.6673 94.087 27.4305 94.806 27.1812C94.8718 28.6698 94.325 29.0904 92.5883 28.8587Z" fill="#7AED00"/>
<path d="M50.0286 5.29719C49.0539 5.73042 48.3602 6.04024 47.7627 6.30472C47.5501 5.90926 47.4361 5.69768 47.269 5.3929C47.8311 4.56421 48.3653 4.46597 50.0286 5.29719Z" fill="#7AED00"/>
<path d="M53.9218 6.3398C53.2509 6.04006 52.5825 5.74284 51.7471 5.37005C52.7648 4.49602 53.5496 4.58922 54.2838 5.13832C54.1724 5.51363 54.0838 5.80833 53.9218 6.3398Z" fill="#7AED00"/>
<path d="M76.4942 44.8806C77.1778 46.1148 76.9677 46.8906 76.1195 47.4423C75.8259 47.2206 75.6081 47.0569 75.2183 46.7597C75.5752 46.2332 75.9904 45.6212 76.4942 44.8806Z" fill="#7AED00"/>
<path d="M24.9575 45.1072C26.3524 45.9485 26.4233 46.2381 25.5853 47.485C24.598 46.883 24.6815 46.0618 24.9575 45.1072Z" fill="#7AED00"/>
<path d="M74.2613 60.4568C74.4309 61.4265 74.3119 62.1394 73.3398 62.4718C72.9271 61.1192 72.9701 61.0235 74.2613 60.4568Z" fill="#7AED00"/>
<path d="M28.0258 62.5394C27.717 61.9701 27.4106 61.4008 27.0688 60.7711C27.6359 60.6502 27.9195 60.5923 28.3651 60.4966C28.4106 61.1263 28.4562 61.7484 28.5043 62.3731C28.3423 62.4285 28.1853 62.4839 28.0258 62.5394Z" fill="#7AED00"/>
</svg>
