<svg xmlns="http://www.w3.org/2000/svg" width="26" height="26" viewBox="0 0 26 26" fill="none">
  <g clip-path="url(#clip0_1_41607)">
    <path d="M16.25 18.9583C16.25 19.6766 16.5353 20.3655 17.0433 20.8734C17.5512 21.3813 18.24 21.6667 18.9583 21.6667C19.6766 21.6667 20.3655 21.3813 20.8734 20.8734C21.3813 20.3655 21.6667 19.6766 21.6667 18.9583C21.6667 18.24 21.3813 17.5512 20.8734 17.0433C20.3655 16.5353 19.6766 16.25 18.9583 16.25C18.24 16.25 17.5512 16.5353 17.0433 17.0433C16.5353 17.5512 16.25 18.24 16.25 18.9583Z" stroke="white" stroke-width="2" stroke-linecap="round" stroke-linejoin="round"/>
    <path d="M6.5 8.66699V20.5837C6.50021 20.8119 6.57249 21.0342 6.70652 21.2189C6.84056 21.4036 7.0295 21.5413 7.2464 21.6123C7.4633 21.6833 7.69708 21.6839 7.91438 21.6142C8.13169 21.5444 8.32141 21.4079 8.4565 21.2239L12.4583 15.7087V15.7682" stroke="white" stroke-width="2" stroke-linecap="round" stroke-linejoin="round"/>
    <path d="M6.50008 8.66634H22.7501L18.9584 16.2497L11.2667 15.4404C10.4821 15.358 9.73486 15.0628 9.10562 14.5869C8.47637 14.111 7.989 13.4723 7.69608 12.7397L4.60533 5.01551C4.52519 4.81428 4.38657 4.6417 4.20736 4.52004C4.02816 4.39838 3.8166 4.33323 3.6 4.33301H2.16675" stroke="white" stroke-width="2" stroke-linecap="round" stroke-linejoin="round"/>
  </g>
  <defs>
    <clipPath id="clip0_1_41607">
      <rect width="26" height="26" fill="white"/>
    </clipPath>
  </defs>
</svg>