<svg xmlns="http://www.w3.org/2000/svg" width="776" height="381" viewBox="0 0 776 381" fill="none">
<path d="M190.446 381C139.585 381 91.7693 361.201 55.7664 325.214C19.7917 289.254 0 241.393 0 190.514C0 139.635 19.7917 91.8021 55.7664 55.7864C91.7693 19.7988 139.585 0 190.446 0C236.739 0 281.37 16.8092 316.104 47.3253C317.852 48.8765 318.021 51.5276 316.498 53.3045C314.948 55.0531 312.298 55.2223 310.521 53.6993C277.338 24.537 234.681 8.46103 190.446 8.46103C141.841 8.46103 96.1393 27.3855 61.7434 61.7655C27.3757 96.1737 8.458 141.891 8.458 190.514C8.458 239.137 27.3757 284.855 61.7434 319.235C96.1393 353.615 141.841 372.539 190.446 372.539C225.039 372.539 258.674 362.809 287.685 344.42C338.687 312.127 367.416 248.952 395.242 187.863C423.323 126.21 452.334 62.4424 504.52 29.4162C534.912 10.1814 570.097 0 606.241 0C657.13 0 704.946 19.7988 740.921 55.7864C754.369 69.2394 765.675 84.5257 774.527 101.222C775.627 103.281 774.838 105.847 772.779 106.947C770.721 108.047 768.156 107.258 767.056 105.199C758.598 89.2356 747.8 74.6263 734.944 61.7655C700.576 27.3855 654.875 8.46103 606.241 8.46103C571.705 8.46103 538.07 18.1912 509.003 36.5798C458.931 68.2523 430.456 130.864 402.883 191.388C374.577 253.605 345.284 317.909 292.168 351.584C261.832 370.819 226.646 381 190.446 381Z" fill="white"/>
</svg>