<svg width="1208" height="382" viewBox="0 0 1208 382" fill="none" xmlns="http://www.w3.org/2000/svg">
<path d="M190.446 381C139.585 381 91.7693 361.201 55.7664 325.214C19.7917 289.254 0 241.393 0 190.514C0 139.635 19.7917 91.8021 55.7664 55.7864C91.7693 19.7988 139.585 0 190.446 0C236.739 0 281.37 16.8092 316.104 47.3253C317.852 48.8765 318.021 51.5276 316.498 53.3045C314.948 55.0531 312.298 55.2223 310.521 53.6993C277.338 24.537 234.681 8.46103 190.446 8.46103C141.841 8.46103 96.1393 27.3855 61.7434 61.7655C27.3757 96.1737 8.458 141.891 8.458 190.514C8.458 239.137 27.3757 284.855 61.7434 319.235C96.1393 353.615 141.841 372.539 190.446 372.539C225.039 372.539 258.674 362.809 287.685 344.42C338.687 312.127 367.416 248.952 395.242 187.863C423.323 126.21 452.334 62.4424 504.52 29.4162C534.912 10.1814 570.097 0 606.241 0C657.13 0 704.946 19.7988 740.921 55.7864C754.369 69.2394 765.675 84.5257 774.527 101.222C775.627 103.281 774.838 105.847 772.779 106.947C770.721 108.047 768.156 107.258 767.056 105.199C758.598 89.2356 747.8 74.6263 734.944 61.7655C700.576 27.3855 654.875 8.46103 606.241 8.46103C571.705 8.46103 538.07 18.1912 509.003 36.5798C458.931 68.2523 430.456 130.864 402.883 191.388C374.577 253.605 345.284 317.909 292.168 351.584C261.832 370.819 226.646 381 190.446 381Z" fill="white"/>
<path d="M321.263 40.8103C326.451 45.5485 326.845 53.5865 322.109 58.7759C317.372 63.9653 309.337 64.3602 304.15 59.622C298.962 54.8838 298.567 46.8458 303.304 41.6564C308.04 36.467 316.047 36.0721 321.263 40.8103Z" fill="#7AED00"/>
<path d="M758.993 108.442C762.15 114.703 769.819 117.213 776.078 114.055C782.337 110.896 784.846 103.225 781.688 96.9634C778.531 90.7022 770.862 88.1921 764.603 91.3509C758.344 94.5097 755.835 102.181 758.993 108.442Z" fill="#7AED00"/>
<path d="M1017.55 381C971.26 381 926.63 364.191 891.896 333.646C890.148 332.095 889.979 329.444 891.501 327.667C893.052 325.919 895.702 325.75 897.478 327.272C930.662 356.435 973.29 372.511 1017.53 372.511C1066.1 372.511 1111.83 353.586 1146.23 319.206C1180.6 284.798 1199.51 239.08 1199.51 190.458C1199.51 141.807 1180.6 96.0891 1146.23 61.7091C1111.86 27.3855 1066.16 8.46103 1017.55 8.46103C982.961 8.46103 949.326 18.1912 920.343 36.5798C869.341 68.901 840.584 132.048 812.786 193.109C784.733 254.762 755.694 318.501 703.48 351.556C673.116 370.819 637.931 381.028 601.759 381.028C550.87 381.028 503.054 361.229 467.079 325.242C450.248 308.404 436.884 288.831 427.355 267.115C426.424 264.971 427.383 262.489 429.525 261.53C431.668 260.6 434.149 261.559 435.108 263.702C444.214 284.46 456.986 303.159 473.084 319.263C507.452 353.643 553.153 372.567 601.787 372.567C636.352 372.567 669.958 362.837 698.997 344.42C749.097 312.72 777.572 250.136 805.117 189.612C833.423 127.423 862.716 63.0911 915.861 29.4444C946.168 10.1814 981.354 0 1017.55 0C1068.41 0 1116.23 19.7988 1152.23 55.7864C1188.21 91.7739 1208 139.607 1208 190.514C1208 241.393 1188.21 289.226 1152.23 325.242C1116.23 361.201 1068.41 381 1017.55 381Z" fill="white"/>
<path d="M419.771 270.753C417.121 264.238 420.25 256.82 426.763 254.169C433.275 251.518 440.69 254.649 443.34 261.164C445.99 267.679 442.861 275.096 436.348 277.747C429.836 280.37 422.421 277.24 419.771 270.753Z" fill="#60A814"/>
<path d="M903.878 321.378C898.691 316.64 890.627 317.035 885.919 322.224C881.183 327.414 881.577 335.48 886.765 340.19C891.952 344.928 900.016 344.533 904.724 339.344C909.461 334.154 909.094 326.088 903.878 321.378Z" fill="#60A814"/>
</svg>
