<svg xmlns="http://www.w3.org/2000/svg" width="51" height="51" viewBox="0 0 51 51" fill="none">
  <g clip-path="url(#clip0_1_6588)">
    <rect width="51" height="51" rx="20" fill="#2E522A"/>
    <path d="M20.9834 23.7733C20.9834 25.0437 21.4881 26.2621 22.3864 27.1604C23.2847 28.0587 24.5031 28.5634 25.7735 28.5634C27.0439 28.5634 28.2623 28.0587 29.1606 27.1604C30.059 26.2621 30.5636 25.0437 30.5636 23.7733C30.5636 22.5029 30.059 21.2845 29.1606 20.3861C28.2623 19.4878 27.0439 18.9832 25.7735 18.9832C24.5031 18.9832 23.2847 19.4878 22.3864 20.3861C21.4881 21.2845 20.9834 22.5029 20.9834 23.7733Z" stroke="white" stroke-width="2" stroke-linecap="round" stroke-linejoin="round"/>
    <path d="M34.8062 32.8057L28.0314 39.5805C27.4326 40.1787 26.6208 40.5147 25.7744 40.5147C24.9281 40.5147 24.1163 40.1787 23.5175 39.5805L16.7411 32.8057C14.9547 31.0193 13.7382 28.7432 13.2454 26.2654C12.7526 23.7876 13.0056 21.2193 13.9724 18.8852C14.9392 16.5512 16.5765 14.5563 18.6771 13.1527C20.7777 11.7491 23.2473 11 25.7736 11C28.3 11 30.7696 11.7491 32.8702 13.1527C34.9708 14.5563 36.6081 16.5512 37.5749 18.8852C38.5417 21.2193 38.7947 23.7876 38.3019 26.2654C37.8091 28.7432 36.5926 31.0193 34.8062 32.8057Z" stroke="white" stroke-width="2" stroke-linecap="round" stroke-linejoin="round"/>
  </g>
  <defs>
    <clipPath id="clip0_1_6588">
      <rect width="51" height="51" rx="20" fill="white"/>
    </clipPath>
  </defs>
</svg>