<svg xmlns="http://www.w3.org/2000/svg" width="71" height="78" viewBox="0 0 71 78" fill="none">
<g clip-path="url(#clip0_1_43445)">
<path d="M52.9913 77.3043C51.307 74.3641 49.6288 71.424 47.9405 68.4859C46.3887 65.7836 44.8268 63.0854 43.271 60.3852C43.479 60.3018 43.6808 60.2002 43.8929 60.1392C48.7459 58.7464 52.977 56.2901 56.6351 52.8213C58.0054 51.522 59.1819 50.0581 60.3809 48.6104C63.7984 54.5029 67.2179 60.3933 70.6314 66.2879C70.7272 66.4526 70.9413 66.6213 70.8312 66.8226C70.717 67.0321 70.4662 66.9101 70.2806 66.9019C66.6552 66.7169 63.0297 66.5258 59.4042 66.3326C59.0086 66.3123 58.6701 66.2391 58.4193 66.7454C56.7126 70.1613 54.961 73.5549 53.2299 76.9586C53.1768 77.0623 53.1707 77.1904 53.1442 77.3084C53.0912 77.3043 53.0402 77.3043 52.9913 77.3043Z" fill="#41596B"/>
<path d="M27.568 60.4039C24.4054 65.8836 21.2407 71.3613 18.0802 76.8411C17.9965 76.9875 17.9374 77.1481 17.866 77.3027C17.8151 77.3027 17.7661 77.3027 17.7152 77.3027C17.7784 77.0485 17.5908 76.8757 17.4929 76.6845C15.831 73.415 14.1508 70.1536 12.5033 66.8759C12.2769 66.4265 12.0363 66.2801 11.5266 66.3106C7.90107 66.5282 4.27559 66.7112 0.648068 66.8962C0.440082 66.9064 0.150533 67.0406 0.0302271 66.8149C-0.0839613 66.6014 0.162767 66.4082 0.270838 66.2212C3.64144 60.3876 7.01611 54.5561 10.3887 48.7246C10.6355 48.8324 10.7415 49.0723 10.8924 49.2675C13.896 53.1409 17.5867 56.1685 22.0115 58.3116C23.8018 59.1798 25.6859 59.7858 27.568 60.4039Z" fill="#41596B"/>
<path d="M27.5683 60.4037C25.6862 59.7856 23.8021 59.1797 22.0118 58.3114C17.587 56.1683 13.8983 53.1408 10.8927 49.2673C10.7418 49.0721 10.6358 48.8322 10.3891 48.7244C8.96377 46.5569 7.63429 44.3386 6.70447 41.9047C5.58297 38.9788 4.88153 35.9655 4.67558 32.8301C4.1495 24.7945 6.4088 17.6068 11.4698 11.3747C16.3167 5.40291 22.6052 1.71044 30.2314 0.457926C38.8913 -0.965384 46.8213 0.925585 53.8398 6.18167C60.3506 11.0555 64.339 17.5702 65.6889 25.5855C67.0653 33.7593 65.3198 41.2988 60.6626 48.1653C60.5647 48.3117 60.475 48.4642 60.3832 48.6126C59.1842 50.0603 58.0077 51.5243 56.6374 52.8236C52.9814 56.2903 48.7482 58.7486 43.8952 60.1414C43.6811 60.2024 43.4793 60.3041 43.2733 60.3874C40.7591 61.0279 38.2001 61.3797 35.6125 61.396C32.8944 61.4102 30.2069 61.0727 27.5683 60.4037ZM35.3494 8.45693C22.9804 8.49963 13.1724 18.2798 13.0542 30.3942C12.9298 43.1552 22.96 52.9212 35.3311 52.9435C47.8306 52.9659 57.4632 43.1491 57.659 31.051C57.8649 18.3774 47.6247 8.43457 35.3494 8.45693Z" fill="#FED05C"/>
<path d="M35.3494 8.45707C47.6246 8.4347 57.8649 18.3775 57.661 31.0511C57.4652 43.1493 47.8326 52.966 35.333 52.9437C22.962 52.9213 12.9297 43.1553 13.0561 30.3944C13.1723 18.2799 22.9803 8.49977 35.3494 8.45707ZM25.2824 44.1923C25.2416 45.3452 26.1144 45.8861 27.1196 45.3676C29.5135 44.1334 31.9156 42.9093 34.2768 41.6141C35.0802 41.1729 35.7347 41.1871 36.528 41.6202C38.8464 42.889 41.2036 44.0866 43.5383 45.3269C44.046 45.5953 44.5252 45.7153 45.0166 45.3371C45.4673 44.9894 45.5386 44.538 45.4428 43.991C44.9636 41.2725 44.5252 38.5479 44.0338 35.8314C43.9115 35.1563 44.1052 34.6867 44.5823 34.2251C46.5725 32.2975 48.5381 30.3476 50.514 28.4058C50.8729 28.052 51.1135 27.6677 50.932 27.1309C50.7464 26.5839 50.3468 26.3542 49.8024 26.2769C47.0883 25.8845 44.3784 25.4555 41.6603 25.1037C40.8855 25.0041 40.4409 24.6625 40.1167 23.9874C38.9585 21.5881 37.7616 19.2071 36.5912 16.8139C36.324 16.267 36.0325 15.8054 35.3208 15.8197C34.6459 15.8339 34.3747 16.2812 34.1218 16.8017C32.9432 19.2193 31.7463 21.6288 30.5677 24.0444C30.2986 24.5974 29.9417 24.9817 29.2851 25.0732C26.5956 25.4534 23.9101 25.8703 21.2185 26.2444C20.5844 26.3318 20.0236 26.4396 19.7851 27.1309C19.5465 27.8222 19.9992 28.2106 20.4172 28.6152C22.3298 30.4757 24.2425 32.3382 26.1592 34.1966C26.5752 34.5992 26.875 35.0364 26.7587 35.6586C26.5874 36.5715 26.4264 37.4845 26.2693 38.3995C25.9329 40.3535 25.6026 42.3095 25.2824 44.1923Z" fill="#F7B54C"/>
<path d="M25.2827 44.1923C25.6028 42.3094 25.9332 40.3554 26.2696 38.4014C26.4266 37.4864 26.5877 36.5714 26.759 35.6605C26.8752 35.0383 26.5755 34.6032 26.1595 34.1986C24.2428 32.3401 22.3322 30.4776 20.4175 28.6172C19.9995 28.2105 19.5468 27.8222 19.7853 27.1329C20.0239 26.4415 20.5847 26.3338 21.2188 26.2463C23.9104 25.8722 26.5959 25.4534 29.2854 25.0752C29.942 24.9816 30.2988 24.5994 30.568 24.0463C31.7466 21.6287 32.9415 19.2193 34.1221 16.8037C34.375 16.2832 34.6482 15.8358 35.3211 15.8216C36.0327 15.8074 36.3243 16.2689 36.5914 16.8159C37.7619 19.2091 38.9588 21.5901 40.117 23.9894C40.4433 24.6644 40.8878 25.006 41.6606 25.1057C44.3807 25.4574 47.0886 25.8865 49.8026 26.2789C50.3471 26.3582 50.7467 26.5879 50.9323 27.1329C51.1158 27.6697 50.8731 28.056 50.5143 28.4077C48.5384 30.3495 46.5727 32.3015 44.5826 34.2271C44.1054 34.6886 43.9138 35.1603 44.0341 35.8334C44.5255 38.5498 44.9639 41.2745 45.4431 43.993C45.5389 44.54 45.4675 44.9913 45.0169 45.339C44.5255 45.7172 44.0443 45.5993 43.5386 45.3289C41.2038 44.0886 38.8467 42.8909 36.5282 41.6222C35.735 41.1891 35.0805 41.1748 34.2771 41.6161C31.9158 42.9092 29.5138 44.1353 27.1199 45.3695C26.1146 45.886 25.2399 45.3451 25.2827 44.1923Z" fill="#FEFEFD"/>
</g>
<defs>
<clipPath id="clip0_1_43445">
<rect width="70.8621" height="77.3041" fill="white"/>
</clipPath>
</defs>
</svg>