<svg xmlns="http://www.w3.org/2000/svg" width="71" height="75" viewBox="0 0 71 75" fill="none">
  <g clip-path="url(#clip0_1_43457)">
    <path d="M26.6127 65.1163C26.144 65.1816 25.7196 65.0236 25.3333 64.8003C21.1443 62.3906 16.9639 59.9683 12.7792 57.5522C8.48044 55.0709 4.19651 52.5643 -0.129649 50.1335C-1.4218 49.4068 -2.00664 48.4695 -2.00242 46.9782C-1.96864 37.3014 -1.98342 27.6247 -1.98975 17.948C-1.98975 17.3076 -1.93274 16.6926 -1.54637 16.1533C-1.4408 16.3745 -1.26133 16.5219 -1.05231 16.642C1.70934 18.2323 4.46465 19.829 7.23264 21.4066C7.7457 21.6994 8.22286 21.9859 8.2672 22.6494C8.25031 23.9069 8.20386 25.1644 8.15107 26.422C8.05818 28.6273 8.12996 30.839 8.12152 33.0486C8.1194 33.6089 8.21653 34.1419 8.45089 34.6495C8.53956 34.8686 8.70003 35.0244 8.90483 35.1382C9.26798 35.6184 9.75992 35.907 10.3258 36.0861C10.4313 36.1408 10.5348 36.1956 10.6404 36.2504C11.4849 36.8633 12.3653 37.4131 13.326 37.8238C13.4295 38.0155 13.5878 38.1187 13.8074 38.125C13.9679 38.3272 14.1874 38.4136 14.4302 38.4557C14.5358 38.5084 14.6414 38.5632 14.7469 38.6158C15.8237 38.9571 16.4698 38.4431 16.4761 37.1414C16.493 33.7311 16.474 30.323 16.4677 26.9127C16.5268 26.8664 16.5838 26.8201 16.6429 26.7716C17.7197 27.5741 18.9295 28.1555 20.0823 28.8253C22.1873 30.0513 24.3156 31.2393 26.4333 32.4441C26.6613 32.7748 26.5958 33.1519 26.5958 33.5142C26.6085 44.0524 26.6106 54.5843 26.6127 65.1163Z" fill="#F1D0A4"/>
    <path d="M26.6126 65.1163C26.6084 54.5843 26.6063 44.0524 26.602 33.5205C26.602 33.1582 26.6675 32.7811 26.4395 32.4504C26.5915 32.4209 26.7667 32.4293 26.8955 32.3556C28.3059 31.5489 29.7078 30.7274 31.114 29.9143C34.3127 28.0649 37.5135 26.2176 40.7143 24.3703C43.9827 22.4851 47.2553 20.602 50.5258 18.7168C51.9298 17.9079 53.298 17.0338 54.759 16.3281C55.1538 16.8674 55.1728 17.4951 55.175 18.1249C55.1834 23.7405 55.1897 29.354 55.1961 34.9696C54.9786 34.9928 54.7358 34.9022 54.5669 35.1213C53.7899 35.0918 53.1987 35.5257 52.6941 36.0018C51.1528 37.4531 49.3181 37.9944 47.2511 37.9755C45.3171 37.9565 44.0122 38.9023 43.6765 40.8043C43.2902 42.9929 42.3865 44.8065 40.6109 46.1651C40.4251 46.3083 40.2667 46.4895 40.1083 46.6643C39.3103 47.549 39.0421 48.5537 39.3968 49.7165C39.7135 50.7549 40.2941 51.667 40.7439 52.6422C40.9993 53.1962 41.202 53.7649 41.1112 54.3821C40.9613 55.389 40.822 56.3958 40.8114 57.4174C39.0062 58.2684 37.3383 59.3637 35.6048 60.3453C33.0459 61.7945 30.5101 63.2858 27.9596 64.7497C27.5458 64.9857 27.113 65.1858 26.6126 65.1163Z" fill="#EBB978"/>
    <path d="M40.8075 57.4176C40.818 56.396 40.9574 55.3892 41.1073 54.3823C41.1981 53.7652 40.9954 53.1964 40.7399 52.6425C40.2902 51.6672 39.7096 50.7551 39.3929 49.7167C39.0382 48.554 39.3042 47.5492 40.1044 46.6645C40.2627 46.4897 40.4211 46.3086 40.6069 46.1653C42.3804 44.8067 43.2841 42.9931 43.6726 40.8046C44.0104 38.9004 45.3152 37.9567 47.2471 37.9757C49.3141 37.9946 51.1489 37.4533 52.6902 36.002C53.1969 35.526 53.7881 35.092 54.5629 35.1215C55.4434 35.764 56.3111 36.4275 57.2106 37.0405C58.1269 37.6639 59.134 38.001 60.2636 37.7966C60.3628 37.7988 60.4642 37.803 60.5634 37.8051C60.707 38.0031 60.8611 38.022 61.0321 37.8367C61.4628 37.8114 61.8957 37.7714 62.32 37.8956C62.3475 38.0452 62.4552 38.0894 62.584 38.1442C63.855 38.6792 64.6805 39.5576 64.8706 40.9857C65.1239 42.8941 65.8819 44.5455 67.4654 45.7462C67.818 46.0137 68.1199 46.357 68.4155 46.6898C69.184 47.5555 69.4459 48.5455 69.1165 49.6746C68.8948 50.4371 68.5126 51.1195 68.1431 51.8168C67.628 52.7878 67.1656 53.7652 67.4781 54.9532C67.6132 55.465 67.6259 56.038 67.666 56.5814C67.8391 58.9047 67.2332 59.9263 64.9677 60.7731C63.2469 61.4156 61.8724 62.3613 61.0279 64.0338C60.5212 65.0385 59.778 65.8348 58.6695 66.2076C58.6104 66.2181 58.5513 66.2265 58.4922 66.2371C57.5357 65.8242 56.5223 65.5967 55.5215 65.3355C54.9071 65.1755 54.3539 65.4872 53.7712 65.5778C53.7015 65.186 53.3785 65.2534 53.1568 65.3061C52.1328 65.5441 51.0876 65.7273 50.1439 66.2308C49.255 66.1149 48.5773 65.6494 48.0726 64.9332C47.5427 64.1812 47.0465 63.4061 46.525 62.6478C46.1281 62.0707 45.634 61.6136 44.9225 61.4556C44.249 60.9795 43.4446 60.7794 42.7182 60.415C41.4768 59.7915 40.7885 58.8352 40.8075 57.4176ZM55.5342 59.939C55.9269 59.9116 56.3238 59.9221 56.7102 59.8526C61.7795 58.949 65.1535 54.1591 64.3849 49.1206C63.7325 44.8425 59.6618 41.2195 55.3568 41.2975C50.5577 41.0321 46.2273 44.7372 45.748 49.7988C45.3237 54.2686 48.1655 58.3571 52.4727 59.6378C53.4566 59.9327 54.4721 60.2613 55.5342 59.939Z" fill="#FEE077"/>
    <path d="M16.6496 26.7782C16.5905 26.8246 16.5335 26.8709 16.4743 26.9193C16.0795 26.9509 15.767 26.7298 15.4567 26.5507C13.9133 25.6724 12.4058 24.7287 10.837 23.903C9.99882 23.4607 9.30418 22.6981 8.27173 22.656C8.22739 21.9904 7.75234 21.706 7.23717 21.4133C4.46707 19.8314 1.70965 18.2347 -1.04989 16.6465C-1.25891 16.5264 -1.43627 16.379 -1.54395 16.1578C-1.18713 15.6038 -0.621284 15.3132 -0.0744442 14.9993C8.29284 10.1673 16.6644 5.33942 25.0274 0.498938C25.8593 0.0165758 26.7355 -0.208808 27.5737 0.250385C30.6098 1.91232 33.6248 3.61428 36.5596 5.44895C35.5757 6.28729 34.3976 6.81178 33.2955 7.45633C29.9954 9.3921 26.6679 11.2836 23.351 13.1941C19.7849 15.2479 16.221 17.3037 12.657 19.3616C11.2107 20.1958 9.77079 21.0404 8.26117 21.9167C8.44275 22.0536 8.53776 22.14 8.64544 22.2031C10.6386 23.3596 12.6211 24.5328 14.6332 25.6534C15.2814 26.0136 15.824 26.6245 16.6538 26.6139C16.6517 26.6687 16.6496 26.7235 16.6496 26.7782Z" fill="#E2A76F"/>
    <path d="M16.6494 26.7786C16.6515 26.7239 16.6536 26.6691 16.6557 26.6143C20.1036 24.6238 23.5514 22.6333 27.0014 20.6427C30.5864 18.5743 34.1673 16.5016 37.7566 14.4394C40.1635 13.0576 42.581 11.6927 44.9943 10.3193C47.0233 11.4652 49.0544 12.609 51.0813 13.7591C51.9702 14.2646 52.8528 14.7786 53.7374 15.2946C54.1702 15.5474 54.5883 15.8191 54.7614 16.331C53.3004 17.0387 51.9322 17.9108 50.5282 18.7196C47.2577 20.6048 43.9872 22.4858 40.7167 24.3731C37.5159 26.2204 34.3151 28.0677 31.1164 29.9172C29.7102 30.7302 28.3083 31.5517 26.8979 32.3585C26.7691 32.4322 26.596 32.4238 26.4419 32.4532C24.3242 31.2484 22.1959 30.0604 20.0909 28.8345C18.9339 28.1604 17.7262 27.5791 16.6494 26.7786Z" fill="#E2A66F"/>
    <path d="M44.9919 10.3172C42.5787 11.6906 40.1612 13.0555 37.7542 14.4373C34.1649 16.4995 30.5841 18.5722 26.999 20.6406C23.5512 22.6312 20.1033 24.6217 16.6534 26.6122C15.8236 26.6228 15.281 26.0119 14.6328 25.6517C12.6207 24.5311 10.6381 23.3579 8.64501 22.2015C8.53733 22.1383 8.44232 22.0519 8.26074 21.915C9.77036 21.0366 11.2124 20.1941 12.6566 19.3599C16.2205 17.302 19.7845 15.2462 23.3506 13.1924C26.6654 11.282 29.995 9.39253 33.295 7.45465C34.3951 6.8101 35.5753 6.28561 36.5592 5.44727C38.4763 6.36776 40.2583 7.52627 42.1015 8.57314C43.0812 9.12923 44.1031 9.6137 44.9919 10.3172Z" fill="#C38958"/>
    <path d="M44.9266 61.458C45.6382 61.616 46.1322 62.0731 46.5291 62.6502C47.0507 63.4085 47.5468 64.1837 48.0768 64.9357C48.5814 65.6497 49.2591 66.1173 50.148 66.2332C50.5365 66.5281 50.9714 66.349 51.3874 66.3533C50.3613 68.5944 49.3288 70.8335 48.3111 73.0789C48.1443 73.4476 47.91 73.7446 47.6059 73.9973C46.8754 72.9083 46.3666 71.6866 45.5621 70.644C45.3785 69.991 45.1821 69.3928 44.27 69.5802C43.1362 69.814 41.9897 69.991 40.8496 70.1932C42.2072 67.2801 43.5669 64.369 44.9266 61.458Z" fill="#FD656F"/>
    <path d="M58.6714 66.2075C59.782 65.8346 60.523 65.0384 61.0298 64.0337C61.8743 62.3612 63.2488 61.4154 64.9696 60.773C67.235 59.9283 67.8389 58.9067 67.6679 56.5813C67.6277 56.0357 67.6151 55.4649 67.4799 54.953C67.1675 53.765 67.6299 52.7877 68.145 51.8166C68.5145 51.1194 68.8967 50.4369 69.1184 49.6744C69.4477 48.5454 69.1859 47.5533 68.4174 46.6897C68.1218 46.3569 67.8199 46.0135 67.4673 45.746C65.8838 44.5433 65.1258 42.894 64.8724 40.9856C64.6824 39.5574 63.859 38.6791 62.5858 38.1441C62.457 38.0893 62.3473 38.0451 62.3219 37.8955C62.8709 37.9313 63.4325 37.8976 63.9624 38.0135C65.3433 38.3168 66.2089 39.1951 66.5573 40.5643C66.7051 41.1457 66.8339 41.7354 66.9352 42.3273C67.2181 43.9851 68.3984 45.0025 69.5512 46.0388C71.1347 47.4627 71.4007 48.8255 70.4443 50.7381C70.269 51.0899 70.1149 51.4564 69.9059 51.7871C69.0994 53.0699 69.1205 54.4496 69.3295 55.8819C69.4942 57.0194 69.6293 58.1737 68.9389 59.2353C68.4702 59.9578 67.784 60.358 67.0281 60.6824C66.741 60.8046 66.4201 60.8635 66.2258 61.1437C65.8268 61.1437 65.4826 61.3101 65.1532 61.5144C64.5684 61.7714 64.0743 62.1274 63.7196 62.6793C63.2108 63.4691 62.6787 64.2464 62.1319 65.011C61.3549 66.0979 59.8939 66.5929 58.6714 66.2075Z" fill="#FED065"/>
    <path d="M58.6717 66.2078C59.8941 66.5933 61.3552 66.0983 62.1322 65.0093C62.679 64.2447 63.209 63.4674 63.7199 62.6775C64.0767 62.1257 64.5687 61.7697 65.1556 61.5127C65.2211 61.7907 65.2485 62.0835 65.3583 62.3426C65.9305 63.6865 66.5533 65.0114 67.1044 66.3637C67.5647 67.4927 68.2171 68.5501 68.4451 69.7718C67.1297 69.6391 65.8798 69.1104 64.5433 69.1041C63.9057 68.6744 63.3715 68.6597 62.9978 69.4496C62.8543 69.7529 62.6853 70.0541 62.4742 70.3132C61.9738 70.9282 61.788 71.7666 61.0955 72.2426C60.2298 70.2395 59.3642 68.2384 58.4985 66.2352C58.5534 66.2289 58.6125 66.2184 58.6717 66.2078Z" fill="#FD656F"/>
    <path d="M68.4409 69.7734C68.2149 68.5517 67.5604 67.4964 67.1001 66.3653C66.5491 65.013 65.9283 63.6881 65.3541 62.3442C65.2443 62.0851 65.2168 61.7923 65.1514 61.5143C65.4807 61.31 65.8228 61.1436 66.2239 61.1436C67.3028 63.6607 68.3881 66.1736 69.4522 68.6971C69.6042 69.0573 70.0223 69.4448 69.6676 69.8387C69.2981 70.2558 68.8547 69.8345 68.4409 69.7734Z" fill="#FC4A58"/>
    <path d="M47.604 73.9953C47.908 73.7426 48.1424 73.4456 48.3092 73.077C49.3269 70.8316 50.3572 68.5925 51.3854 66.3513C51.8499 66.1364 52.3398 66.0164 52.8402 65.9258C51.5184 68.7947 50.2052 71.6678 48.8708 74.5325C48.5794 75.156 48.2649 75.1496 47.8869 74.5493C47.7792 74.3745 47.699 74.1807 47.604 73.9953Z" fill="#FC4A58"/>
    <path d="M40.8473 70.1928C41.9874 69.9906 43.1339 69.8136 44.2677 69.5798C45.1798 69.3924 45.3762 69.9906 45.5599 70.6436C44.103 70.9111 42.6483 71.1849 41.1894 71.4377C40.9529 71.4777 40.6214 71.5788 40.5011 71.2523C40.3511 70.8352 40.6446 70.5193 40.8473 70.1928Z" fill="#FC4A58"/>
    <path d="M61.0933 72.2441C61.7858 71.768 61.9716 70.9297 62.472 70.3146C62.6831 70.0555 62.852 69.7543 62.9956 69.451C63.3693 68.6611 63.9035 68.6738 64.5411 69.1056C63.7979 70.3336 63.0526 71.5616 62.3094 72.7896C62.1743 73.0129 62.056 73.2994 61.7583 73.2952C61.4079 73.291 61.334 72.9539 61.2221 72.6948C61.1587 72.5516 61.1334 72.3936 61.0933 72.2441Z" fill="#FC4A58"/>
    <path d="M60.2656 37.7968C59.1339 38.0011 58.1268 37.6641 57.2126 37.0406C56.3131 36.4277 55.4454 35.7641 54.5649 35.1217C54.7338 34.9005 54.9788 34.9932 55.1941 34.97C55.9289 34.9827 56.5855 35.2354 57.164 35.6673C58.1711 36.4192 59.1571 37.1944 60.2656 37.7968Z" fill="#FED167"/>
    <path d="M52.8401 65.9254C52.3397 66.016 51.8477 66.1361 51.3854 66.3509C50.9694 66.3467 50.5345 66.5257 50.146 66.2308C51.0898 65.7274 52.1349 65.5442 53.1589 65.3061C53.3806 65.2535 53.7036 65.1861 53.7733 65.5779C53.4629 65.6937 53.1526 65.8096 52.8401 65.9254Z" fill="#FED065"/>
    <path d="M61.0342 37.8363C60.8652 38.0216 60.709 38.0048 60.5654 37.8047C60.7217 37.8152 60.8779 37.8258 61.0342 37.8363Z" fill="#FED167"/>
    <path d="M8.26954 22.6543C9.3041 22.6964 9.99663 23.461 10.8348 23.9013C12.4036 24.727 13.9132 25.6706 15.4545 26.549C15.767 26.7259 16.0794 26.9492 16.4721 26.9176C16.4764 30.3279 16.4975 33.736 16.4806 37.1462C16.4743 38.448 15.8282 38.9619 14.7514 38.6207C14.7261 38.408 14.6986 38.1994 14.4347 38.4606C14.1919 38.4185 13.9702 38.3321 13.8118 38.1299C13.7358 37.894 13.7506 37.5127 13.3305 37.8287C12.3677 37.418 11.4872 36.8682 10.6448 36.2552C10.6216 36.0425 10.5984 35.8297 10.3302 36.0909C9.76438 35.914 9.27243 35.6254 8.90928 35.1431C8.95151 34.7997 8.81849 34.6207 8.45534 34.6544C8.22309 34.1467 8.12597 33.6138 8.12597 33.0535C8.13441 30.8439 8.06263 28.6322 8.15553 26.4268C8.2062 25.1693 8.25265 23.9139 8.26954 22.6543Z" fill="#E2A66F"/>
    <path d="M13.3281 37.828C13.7483 37.5121 13.7356 37.8933 13.8095 38.1293C13.5899 38.1229 13.4316 38.0197 13.3281 37.828Z" fill="#E2A76F"/>
    <path d="M8.45312 34.6564C8.81628 34.6227 8.94929 34.8017 8.90707 35.1451C8.70226 35.0313 8.5418 34.8754 8.45312 34.6564Z" fill="#E2A76F"/>
    <path d="M10.3281 36.0905C10.5984 35.8293 10.6195 36.0421 10.6427 36.2548C10.5371 36.2 10.4316 36.1453 10.3281 36.0905Z" fill="#E2A76F"/>
    <path d="M14.4346 38.4607C14.6985 38.1974 14.7259 38.408 14.7513 38.6208C14.6457 38.5681 14.5401 38.5155 14.4346 38.4607Z" fill="#E2A76F"/>
    <path d="M55.3569 41.2971C59.662 41.2192 63.7327 44.8422 64.3851 49.1203C65.1536 54.1587 61.7797 58.9508 56.7103 59.8523C56.326 59.9218 55.927 59.9113 55.5343 59.9387C53.1843 59.6985 51.1997 58.6559 49.6563 56.9286C47.9756 55.0476 47.1459 52.7938 47.2937 50.2156C47.4774 47.0012 48.9321 44.5494 51.5903 42.7674C52.7431 41.9965 54.0563 41.6721 55.3569 41.2971ZM61.3722 47.4562C61.3785 47.1529 61.3447 46.9064 61.1674 46.6811C60.6163 45.9838 59.8203 45.986 59.0497 46.6895C57.2086 48.3725 55.3569 50.0428 53.5264 51.7364C53.1822 52.0544 52.9415 52.0924 52.6122 51.7364C52.1118 51.1971 51.5818 50.6832 51.0519 50.1734C50.3889 49.5352 49.7576 49.5057 49.1854 50.0618C48.6365 50.5968 48.6217 51.3025 49.2298 51.9428C50.1524 52.916 51.1047 53.8617 52.0738 54.7885C52.6312 55.3236 53.2899 55.3488 53.8494 54.8454C56.231 52.7032 58.5936 50.5421 60.9647 48.3893C61.2603 48.126 61.4271 47.8227 61.3722 47.4562Z" fill="#EBEEF0"/>
    <path d="M55.3566 41.2976C54.0561 41.6725 52.7428 41.9969 51.5921 42.7678C48.9318 44.5498 47.4792 47.0017 47.2955 50.216C47.1477 52.7942 47.9796 55.046 49.6581 56.9291C51.1994 58.6563 53.1862 59.699 55.5361 59.9391C54.4741 60.2614 53.4585 59.9328 52.4747 59.64C48.1675 58.3593 45.3277 54.2708 45.75 49.8011C46.2272 44.7373 50.5575 41.0322 55.3566 41.2976Z" fill="#D2D2D4"/>
    <path d="M61.3718 47.457C61.4267 47.8235 61.2578 48.1268 60.9664 48.3923C58.5933 50.5429 56.2328 52.7061 53.8512 54.8483C53.2916 55.3518 52.6329 55.3265 52.0755 54.7915C51.1085 53.8625 50.1542 52.9189 49.2315 51.9457C48.6234 51.3054 48.6382 50.5976 49.1872 50.0647C49.7594 49.5065 50.3906 49.5381 51.0536 50.1764C51.5836 50.6882 52.1135 51.2001 52.6139 51.7393C52.9433 52.0953 53.184 52.0574 53.5281 51.7393C55.3587 50.0458 57.2103 48.3754 59.0514 46.6924C59.8221 45.9868 60.618 45.9868 61.1691 46.684C61.3443 46.9094 61.3802 47.1537 61.3718 47.457Z" fill="#8BC9FD"/>
  </g>
  <defs>
    <clipPath id="clip0_1_43457">
      <rect width="73" height="75" fill="white" transform="translate(-2)"/>
    </clipPath>
  </defs>
</svg>