<svg xmlns="http://www.w3.org/2000/svg" width="114" height="114" viewBox="0 0 114 114" fill="none">
  <circle cx="57" cy="57" r="57" fill="white"/>
  <path d="M92.5969 34.8235C92.5969 45.0129 92.5969 55.2007 92.5969 65.3901C92.571 65.4282 92.5344 65.4648 92.5222 65.5075C91.7897 68.0365 90.2879 69.1753 87.6789 69.1753C82.5935 69.1768 77.5065 69.1768 72.421 69.1768C63.5127 69.1768 54.6059 69.1798 45.6976 69.1737C43.0033 69.1722 41.0645 67.2301 41.0477 64.544C41.0386 63.0973 41.0325 61.6506 41.0249 60.2039C41.0325 58.335 41.0401 56.466 41.0477 54.597C41.0523 53.472 41.0569 52.3454 41.0615 51.2204C41.2397 51.2189 41.3554 51.103 41.4864 51.0024C43.9613 49.1029 45.8773 46.7324 47.3806 44.0113C48.4604 42.0555 49.0773 39.9365 49.6103 37.7855C51.9193 37.7794 54.2297 37.7779 56.5387 37.7657C57.4038 37.7611 57.8927 37.3114 57.8546 36.5827C57.8196 35.912 57.3642 35.5324 56.5524 35.5263C54.3364 35.5126 52.1203 35.5065 49.9043 35.4958C50.0474 34.0186 50.0231 32.5384 50.0033 31.0566C50.0962 31.0505 50.1891 31.0398 50.282 31.0398C62.9096 31.0383 75.5387 31.0368 88.1663 31.0398C88.803 31.0398 89.4076 31.1969 89.9909 31.4636C91.447 32.1329 92.1856 33.3478 92.5969 34.8235ZM54.5937 54.4568C52.7981 54.4568 51.0024 54.4553 49.2067 54.4568C47.4674 54.4583 46.6526 55.2861 46.651 57.0483C46.6495 58.402 46.6495 59.7557 46.651 61.1094C46.6526 62.704 47.5116 63.5623 49.1169 63.5638C52.7311 63.5668 56.3468 63.5653 59.961 63.5638C61.5434 63.5623 62.4649 62.6369 62.474 61.0332C62.4816 59.6567 62.4786 58.2786 62.474 56.902C62.4694 55.3379 61.6028 54.4629 60.0508 54.4568C58.2323 54.4522 56.4138 54.4583 54.5937 54.4568ZM81.4116 44.4976C82.8585 44.4976 84.3054 44.5068 85.7523 44.4946C87.1489 44.4839 88.0963 43.5586 88.1115 42.1789C88.1267 40.7307 88.1267 39.2825 88.1115 37.8343C88.0963 36.4912 87.1535 35.5339 85.8163 35.5278C82.8768 35.5141 79.9358 35.5156 76.9948 35.5263C75.6194 35.5324 74.6797 36.4882 74.6691 37.8754C74.6569 39.2764 74.6599 40.6789 74.6675 42.0798C74.6752 43.5555 75.5996 44.4854 77.0709 44.4946C78.5178 44.5052 79.9647 44.4976 81.4116 44.4976ZM79.1514 63.2254C79.1362 64.1766 79.5154 64.6782 80.2586 64.6858C80.9821 64.6934 81.3492 64.2391 81.3964 63.3199C81.4451 62.3747 81.6964 61.4845 82.1975 60.675C83.2758 58.9371 84.8567 58.0606 86.8839 57.96C87.6698 57.9203 88.1176 57.5133 88.113 56.8288C88.1084 56.1459 87.6485 55.7404 86.8687 55.7129C86.4681 55.6992 86.0843 55.7861 85.6929 55.8425C82.1076 56.3562 79.2093 59.6246 79.1514 63.2254ZM54.5298 40.0112C53.8063 40.0112 53.0829 40.0005 52.3594 40.0142C51.5827 40.0295 51.1273 40.4639 51.1379 41.1515C51.1471 41.8115 51.5888 42.2414 52.3259 42.2491C53.7728 42.2643 55.2197 42.2643 56.6681 42.2491C57.4053 42.2414 57.8455 41.8085 57.8546 41.1484C57.8637 40.4624 57.4083 40.028 56.6301 40.0142C55.9295 40.0005 55.2304 40.0112 54.5298 40.0112ZM86.8946 60.2024C85.2603 60.1795 83.6566 61.7192 83.6353 63.3336C83.6246 64.1248 84.0069 64.6294 84.6557 64.6827C85.3289 64.7376 85.7797 64.3321 85.8696 63.544C85.9488 62.858 86.3097 62.5119 86.9936 62.4388C87.746 62.3595 88.1374 61.9265 88.11 61.2726C88.0841 60.6201 87.6211 60.2131 86.8946 60.2024ZM65.6191 51.2234V51.2219C66.0623 51.2219 66.5101 51.26 66.9487 51.2128C67.564 51.1457 67.9082 50.7615 67.9372 50.1365C67.9661 49.5267 67.5595 49.0328 66.9396 49.0008C66.1248 48.9597 65.3054 48.9627 64.489 48.9993C63.8585 49.0267 63.4609 49.4993 63.464 50.1121C63.467 50.7234 63.8676 51.1686 64.4997 51.2189C64.8698 51.2478 65.246 51.2234 65.6191 51.2234ZM72.4332 51.2234V51.225C72.8064 51.225 73.181 51.2417 73.5542 51.2219C74.2365 51.1838 74.6599 50.7509 74.6645 50.1152C74.6691 49.478 74.2487 49.0176 73.574 48.9932C72.8048 48.9657 72.0327 48.9642 71.2635 48.9947C70.5934 49.0206 70.1761 49.4932 70.1882 50.1319C70.2004 50.7402 70.6071 51.1747 71.2437 51.2189C71.6382 51.2463 72.0372 51.2234 72.4332 51.2234ZM79.1118 51.225C79.5093 51.225 79.9068 51.2448 80.3013 51.2204C80.9745 51.1792 81.3948 50.728 81.3872 50.0908C81.3796 49.481 80.976 49.0237 80.3409 48.9962C79.5489 48.9627 78.7524 48.9627 77.9604 48.9962C77.3222 49.0222 76.9201 49.4749 76.911 50.0862C76.9003 50.7234 77.3207 51.1777 77.9908 51.2204C78.364 51.2448 78.7386 51.225 79.1118 51.225ZM85.8741 51.2265C86.2473 51.2265 86.622 51.2433 86.9951 51.2234C87.6789 51.1869 88.1039 50.7585 88.1115 50.1228C88.1206 49.4856 87.6987 49.0191 87.0271 48.9947C86.2579 48.9657 85.4858 48.9657 84.7166 48.9947C84.0434 49.0206 83.6261 49.4871 83.6353 50.1243C83.6444 50.7585 84.0693 51.1869 84.7532 51.2234C85.1263 51.2433 85.501 51.2265 85.8741 51.2265Z" fill="#92E5E4"/>
  <path d="M68.644 92.7318C53.8887 92.7318 39.1334 92.7318 24.3796 92.7318C24.2349 92.5138 23.976 92.5275 23.7704 92.4376C22.0326 91.6845 20.9299 90.375 20.9086 88.4801C20.8446 82.7909 20.8934 77.1002 20.8995 71.4094C28.8285 71.4079 36.7575 71.4048 44.6849 71.4033C53.9253 71.4048 63.1656 71.4079 72.406 71.4094C72.4105 77.0849 72.4197 82.7604 72.4166 88.4359C72.4166 89.0731 72.2247 89.6768 71.9414 90.25C71.2545 91.6311 70.0711 92.3415 68.644 92.7318ZM38.8425 74.7845C34.7821 74.7845 30.7201 74.78 26.6596 74.7861C25.1716 74.7876 24.2547 75.7068 24.241 77.1855C24.2349 77.8624 24.2304 78.5408 24.2426 79.2176C24.2669 80.5362 25.1838 81.5058 26.4845 81.5073C34.6998 81.5195 42.9151 81.5195 51.132 81.5073C52.4037 81.5058 53.3343 80.5561 53.3724 79.2877C53.3922 78.6337 53.3785 77.9798 53.377 77.3258C53.3709 75.6596 52.4951 74.7861 50.8183 74.7845C46.8248 74.783 42.8344 74.7845 38.8425 74.7845Z" fill="#50D8D6"/>
  <path d="M54.5937 54.4587C56.4123 54.4587 58.2323 54.4541 60.0508 54.4602C61.6028 54.4648 62.4694 55.3413 62.474 56.9054C62.4786 58.282 62.4801 59.6601 62.474 61.0366C62.4649 62.6404 61.5449 63.5657 59.961 63.5672C56.3468 63.5687 52.7311 63.5703 49.1169 63.5672C47.5116 63.5657 46.6526 62.7074 46.651 61.1129C46.6495 59.7592 46.6495 58.4055 46.651 57.0518C46.6526 55.2895 47.4674 54.4617 49.2067 54.4602C51.0024 54.4572 52.7981 54.4572 54.5937 54.4587Z" fill="#50D8D6"/>
  <path d="M81.4119 44.4979C79.965 44.4979 78.5181 44.504 77.0712 44.4964C75.6014 44.4872 74.6769 43.5573 74.6678 42.0817C74.6602 40.6807 74.6571 39.2782 74.6693 37.8772C74.68 36.4915 75.6197 35.5342 76.995 35.5281C79.9345 35.5159 82.8755 35.5144 85.8165 35.5296C87.1538 35.5357 88.0965 36.4931 88.1118 37.8361C88.127 39.2843 88.127 40.7325 88.1118 42.1807C88.0965 43.5588 87.1507 44.4857 85.7526 44.4964C84.3057 44.507 82.8588 44.4979 81.4119 44.4979Z" fill="#FEAB01"/>
  <path d="M72.4214 69.1774C72.4153 69.9213 72.4108 70.6668 72.4047 71.4107C63.1643 71.4092 53.924 71.4061 44.6836 71.4046C44.577 71.365 44.4719 71.304 44.3623 71.2887C41.4274 70.8695 38.8504 67.9899 38.8108 65.0462C38.7894 63.4348 38.8123 61.8235 38.8153 60.2122C39.551 60.2106 40.2881 60.2076 41.0238 60.2061C41.0314 61.6527 41.039 63.0994 41.0466 64.5461C41.0633 67.2307 43.0022 69.1728 45.6965 69.1759C54.6063 69.1789 63.5146 69.1759 72.4214 69.1774Z" fill="#00A9A7"/>
  <path d="M41.0618 51.2213C41.0512 50.3356 41.039 49.4499 41.0283 48.5642C42.2041 47.3995 43.3388 46.2028 44.2785 44.8293C45.7574 42.6692 46.723 40.2895 47.3627 37.7651C48.0983 37.7574 48.8324 37.7498 49.5681 37.7422L49.6092 37.7864C49.0761 39.9374 48.4593 42.0564 47.3794 44.0122C45.8777 46.7333 43.9602 49.1038 41.4852 51.0033C41.3558 51.1039 41.24 51.2198 41.0618 51.2213Z" fill="#51D8D5"/>
  <path d="M79.1518 63.2258C79.2097 59.6251 82.108 56.3582 85.6903 55.8429C86.0817 55.7865 86.4655 55.6996 86.8661 55.7134C87.6459 55.7408 88.1058 56.1448 88.1104 56.8293C88.115 57.5122 87.6672 57.9208 86.8813 57.9604C84.8556 58.061 83.2732 58.9376 82.1949 60.6754C81.6938 61.4849 81.4425 62.3752 81.3937 63.3203C81.3465 64.2396 80.981 64.6938 80.256 64.6862C79.5158 64.6786 79.1366 64.1771 79.1518 63.2258Z" fill="#50D8D6"/>
  <path d="M49.9029 35.4961C52.119 35.5052 54.335 35.5113 56.5511 35.5266C57.3628 35.5312 57.8182 35.9107 57.8533 36.583C57.8913 37.3117 57.4024 37.7614 56.5373 37.766C54.2284 37.7767 51.9179 37.7797 49.609 37.7858L49.5679 37.7416C49.6638 37.0083 49.7613 36.2736 49.8573 35.5403L49.9029 35.4961Z" fill="#50D8D6"/>
  <path d="M54.5302 40.0118C55.2308 40.0118 55.9314 40.0011 56.6305 40.0148C57.4072 40.0301 57.8642 40.463 57.855 41.149C57.8459 41.8091 57.4057 42.2405 56.6686 42.2496C55.2217 42.2649 53.7748 42.2649 52.3263 42.2496C51.5892 42.242 51.1475 41.8121 51.1384 41.152C51.1277 40.4645 51.5831 40.0301 52.3599 40.0148C53.0818 40.0011 53.8067 40.0118 54.5302 40.0118Z" fill="#50D8D6"/>
  <path d="M41.0251 60.2046C40.2895 60.2061 39.5523 60.2091 38.8167 60.2106L38.7969 60.1908C38.803 58.3325 38.8106 56.4727 38.8167 54.6144C39.5599 54.6083 40.3047 54.6038 41.0479 54.5977C41.0403 56.4666 41.0327 58.3356 41.0251 60.2046Z" fill="#00BDBC"/>
  <path d="M86.8948 60.2024C87.6213 60.2115 88.0843 60.6201 88.1117 61.2725C88.1391 61.9265 87.7462 62.3594 86.9953 62.4387C86.3115 62.5119 85.9505 62.8564 85.8713 63.5439C85.7799 64.3321 85.3306 64.7376 84.6574 64.6827C84.0086 64.6293 83.6248 64.1248 83.637 63.3336C83.6568 61.7192 85.259 60.181 86.8948 60.2024Z" fill="#50D8D6"/>
  <path d="M47.7949 31.0264C48.5305 31.037 49.2661 31.0462 50.0018 31.0569C50.0216 32.5371 50.0459 34.0188 49.9028 35.496L49.8571 35.5402C49.1367 35.5341 48.4163 35.5296 47.6943 35.5235C47.7294 34.0249 47.7614 32.5264 47.7949 31.0264Z" fill="#50D8D6"/>
  <path d="M65.6195 51.2242C65.2463 51.2242 64.8701 51.2486 64.5 51.2181C63.868 51.1678 63.4674 50.7227 63.4644 50.1114C63.4613 49.4985 63.8588 49.0275 64.4894 48.9985C65.3042 48.9619 66.1236 48.9604 66.94 49C67.5599 49.0305 67.9665 49.526 67.9376 50.1358C67.9086 50.7608 67.5644 51.1449 66.9491 51.212C66.5105 51.2593 66.0627 51.2212 65.6195 51.2212C65.6195 51.2227 65.6195 51.2227 65.6195 51.2242Z" fill="#50D8D6"/>
  <path d="M72.4333 51.2239C72.0358 51.2239 71.6383 51.2467 71.2438 51.2193C70.6056 51.1751 70.2005 50.7406 70.1883 50.1324C70.1746 49.4936 70.5919 49.0226 71.2636 48.9951C72.0327 48.9647 72.8049 48.9662 73.5741 48.9936C74.2488 49.018 74.6691 49.4784 74.6646 50.1156C74.66 50.7513 74.2366 51.1842 73.5543 51.2223C73.1826 51.2422 72.808 51.2254 72.4333 51.2254C72.4333 51.2254 72.4333 51.2254 72.4333 51.2239Z" fill="#50D8D6"/>
  <path d="M79.1121 51.225C78.7389 51.225 78.3643 51.2448 77.9926 51.2204C77.321 51.1777 76.9021 50.7235 76.9128 50.0862C76.9235 49.4765 77.3255 49.0237 77.9622 48.9963C78.7542 48.9643 79.5507 48.9627 80.3427 48.9963C80.9778 49.0222 81.3799 49.481 81.389 50.0908C81.3967 50.728 80.9763 51.1793 80.3031 51.2204C79.9071 51.2448 79.5096 51.225 79.1121 51.225Z" fill="#50D8D6"/>
  <path d="M85.8743 51.2271C85.5011 51.2271 85.1265 51.2424 84.7533 51.2241C84.0695 51.189 83.6445 50.7607 83.6354 50.125C83.6263 49.4862 84.0451 49.0197 84.7168 48.9954C85.4859 48.9664 86.2581 48.9664 87.0272 48.9954C87.6989 49.0197 88.1193 49.4877 88.1116 50.1234C88.1025 50.7591 87.6776 51.1875 86.9952 51.2241C86.6221 51.2439 86.2474 51.2271 85.8743 51.2271Z" fill="#50D8D6"/>
  <path d="M38.8166 60.2107C38.8135 61.822 38.7907 63.4333 38.812 65.0447C38.8516 67.9884 41.4286 70.868 44.3635 71.2873C44.4747 71.3025 44.5783 71.3635 44.6849 71.4031C36.7559 71.4046 28.8269 71.4077 20.8994 71.4092C20.8994 67.6774 20.8994 63.944 20.8994 60.2122C26.8652 60.2061 32.8325 60.1985 38.7983 60.1924L38.8166 60.2107Z" fill="#00BDBC"/>
  <path d="M38.8426 74.7842C42.833 74.7842 46.8249 74.7827 50.8153 74.7842C52.4922 74.7857 53.3694 75.6592 53.374 77.3254C53.3755 77.9794 53.3892 78.6349 53.3694 79.2874C53.3314 80.5542 52.4008 81.5039 51.129 81.507C42.9137 81.5192 34.6984 81.5192 26.4815 81.507C25.1808 81.5055 24.2655 80.5359 24.2396 79.2173C24.2274 78.5404 24.232 77.862 24.2381 77.1852C24.2518 75.708 25.1702 74.7888 26.6567 74.7857C30.7202 74.7812 34.7821 74.7842 38.8426 74.7842ZM28.6945 77.0312V77.0327C28.2985 77.0327 27.8995 77.0068 27.505 77.0388C26.8775 77.0907 26.4785 77.548 26.483 78.1578C26.4876 78.7676 26.8897 79.2295 27.5218 79.2569C28.3138 79.292 29.1088 79.2904 29.9008 79.2584C30.5389 79.2325 30.9441 78.7813 30.9578 78.1746C30.9715 77.5389 30.5511 77.0785 29.8825 77.0358C29.4895 77.0099 29.092 77.0312 28.6945 77.0312ZM35.5284 77.0343C35.0852 77.0343 34.6375 76.9962 34.1988 77.0434C33.5835 77.1105 33.2393 77.4931 33.2104 78.1181C33.1814 78.7264 33.5865 79.2218 34.208 79.2539C35.0228 79.295 35.8422 79.292 36.657 79.2554C37.286 79.2279 37.6851 78.7538 37.6836 78.1441C37.6805 77.5343 37.2799 77.0876 36.6479 77.0373C36.2763 77.0084 35.9016 77.0328 35.5284 77.0343ZM42.1933 77.0312C41.7973 77.0312 41.3983 77.0099 41.0038 77.0358C40.3367 77.0785 39.9163 77.5419 39.9316 78.1776C39.9453 78.7859 40.3519 79.234 40.9901 79.2584C41.7821 79.2889 42.5771 79.292 43.3691 79.2569C44.0012 79.2295 44.4032 78.7645 44.4063 78.1547C44.4093 77.545 44.0103 77.0892 43.3813 77.0388C42.9883 77.0068 42.5893 77.0327 42.1933 77.0312ZM48.9191 77.0327C48.9191 77.0312 48.9191 77.0312 48.9191 77.0297C48.5231 77.0297 48.1241 77.0084 47.7296 77.0343C47.061 77.077 46.6406 77.5373 46.6543 78.173C46.668 78.7813 47.0732 79.231 47.7098 79.2569C48.5018 79.2889 49.2968 79.2904 50.0888 79.2554C50.7224 79.2279 51.1245 78.7645 51.129 78.1563C51.1336 77.5465 50.7346 77.0892 50.1071 77.0373C49.7141 77.0068 49.3166 77.0327 48.9191 77.0327Z" fill="#F2F2F2"/>
  <path d="M47.7951 31.0265C47.7615 32.525 47.728 34.0251 47.6945 35.5236C47.5833 36.2706 47.4722 37.0176 47.3625 37.7645C46.7228 40.289 45.7572 42.6687 44.2783 44.8288C43.3386 46.2023 42.2039 47.399 41.0281 48.5637C39.2568 50.0241 37.3561 51.2711 35.2192 52.1415C34.7075 52.3504 34.2612 52.3473 33.7449 52.1522C26.0231 49.2436 20.9056 41.8851 20.8767 33.6165C20.8706 31.7262 20.8965 29.8344 20.866 27.9426C20.8554 27.2611 21.1326 26.8465 21.7296 26.5767C25.6987 24.7793 29.6647 22.9805 33.6261 21.1695C34.1074 20.9499 34.54 20.9393 35.0289 21.1634C38.9675 22.9683 42.9106 24.7641 46.8599 26.5462C47.5194 26.8434 47.8103 27.2825 47.7844 28.0157C47.7463 29.0188 47.7874 30.0234 47.7951 31.0265ZM45.5303 31.7902C45.5303 30.996 45.4602 30.1942 45.5486 29.4091C45.646 28.5401 45.2394 28.1758 44.5114 27.8572C41.351 26.4745 38.2044 25.0568 35.073 23.6116C34.5476 23.3692 34.1196 23.3647 33.6246 23.6025C32.8052 23.9958 31.9736 24.3632 31.1436 24.7367C28.6564 25.8571 26.1708 26.9806 23.6776 28.0874C23.2526 28.2764 23.1003 28.5478 23.1079 29.0081C23.1308 30.4335 23.1293 31.8588 23.114 33.2842C23.0897 35.4276 23.411 37.513 24.1451 39.5268C25.8845 44.2891 29.0874 47.681 33.716 49.736C34.1744 49.9402 34.5658 49.9189 35.0365 49.6979C37.2601 48.6521 39.2111 47.2511 40.8819 45.4431C42.7538 43.4172 44.0468 41.071 44.8327 38.4383C45.4815 36.2675 45.6262 34.0403 45.5303 31.7902Z" fill="#E99708"/>
  <path d="M38.797 60.1919C32.8313 60.1979 26.8639 60.2056 20.8982 60.2117C20.8342 59.108 20.8388 58.018 21.3962 57.0073C22.2049 55.5408 23.4462 54.6429 25.1003 54.6215C29.6725 54.5621 34.2446 54.6093 38.8168 54.6139C38.8107 56.4737 38.8031 58.332 38.797 60.1919Z" fill="#50D8D6"/>
  <path d="M47.3628 37.7644C47.474 37.0174 47.5836 36.2704 47.6948 35.5234C48.4152 35.5295 49.1371 35.5341 49.8575 35.5402C49.7616 36.2735 49.6641 37.0082 49.5682 37.7415C48.8325 37.7491 48.0984 37.7567 47.3628 37.7644Z" fill="#00BDBC"/>
  <path d="M28.6944 77.0308C29.0904 77.0308 29.4894 77.0095 29.8839 77.0354C30.5525 77.0781 30.9728 77.5385 30.9591 78.1742C30.9454 78.7809 30.5403 79.2321 29.9021 79.258C29.1102 79.2901 28.3151 79.2916 27.5231 79.2565C26.8895 79.2291 26.489 78.7672 26.4844 78.1574C26.4798 77.5476 26.8789 77.0903 27.5064 77.0385C27.9008 77.0064 28.2999 77.0324 28.6959 77.0324C28.6944 77.0324 28.6944 77.0308 28.6944 77.0308Z" fill="#D8D8D8"/>
  <path d="M35.5285 77.0347C35.9017 77.0332 36.2779 77.0103 36.648 77.0392C37.28 77.0896 37.6806 77.5362 37.6836 78.146C37.6867 78.7558 37.2861 79.2299 36.6571 79.2573C35.8423 79.2939 35.0229 79.2954 34.208 79.2558C33.5881 79.2238 33.1815 78.7283 33.2104 78.1201C33.2409 77.4951 33.5836 77.1124 34.1989 77.0453C34.6375 76.9966 35.0853 77.0347 35.5285 77.0347Z" fill="#D8D8D8"/>
  <path d="M42.1932 77.0328C42.5892 77.0343 42.9883 77.0084 43.3827 77.0404C44.0117 77.0907 44.4108 77.5465 44.4077 78.1563C44.4047 78.7661 44.0026 79.2295 43.3705 79.2585C42.5786 79.2935 41.7835 79.292 40.9915 79.26C40.3534 79.2341 39.9467 78.7859 39.933 78.1792C39.9178 77.5435 40.3366 77.08 41.0052 77.0374C41.3982 77.0099 41.7957 77.0313 42.1932 77.0328Z" fill="#D8D8D8"/>
  <path d="M48.9193 77.0324C49.3153 77.0324 49.7144 77.0064 50.1088 77.0385C50.7363 77.0903 51.1354 77.5476 51.1308 78.1574C51.1262 78.7657 50.7242 79.2291 50.0906 79.2565C49.2986 79.2916 48.5035 79.2901 47.7116 79.258C47.0734 79.2321 46.6683 78.7824 46.6561 78.1742C46.6424 77.5385 47.0627 77.0781 47.7314 77.0354C48.1258 77.0095 48.5249 77.0308 48.9209 77.0308C48.9193 77.0308 48.9193 77.0324 48.9193 77.0324Z" fill="#D8D8D8"/>
  <path d="M45.5305 31.7901C45.6265 34.0401 45.4803 36.2674 44.833 38.4382C44.0471 41.0709 42.754 43.417 40.8822 45.443C39.2114 47.251 37.2619 48.6519 35.0367 49.6977C34.5661 49.9187 34.1747 49.9385 33.7162 49.7358C29.0877 47.6808 25.8847 44.289 24.1454 39.5266C23.4097 37.5128 23.0884 35.4274 23.1143 33.284C23.131 31.8587 23.1325 30.4333 23.1082 29.008C23.1006 28.5476 23.2529 28.2762 23.6778 28.0872C26.171 26.9805 28.6567 25.8569 31.1438 24.7365C31.9723 24.363 32.8054 23.9956 33.6248 23.6023C34.1198 23.3645 34.5478 23.3691 35.0733 23.6114C38.2062 25.0581 41.3513 26.4743 44.5116 27.857C45.2396 28.1756 45.6463 28.54 45.5488 29.4089C45.4605 30.194 45.5305 30.9958 45.5305 31.7901ZM40.4862 33.2307C40.474 33.1712 40.4618 33.0538 40.4237 32.9456C40.1252 32.0736 39.1809 31.9044 38.459 32.6194C36.6679 34.3938 34.8814 36.1744 33.1161 37.9747C32.7643 38.3345 32.5572 38.4061 32.1871 37.9945C31.5474 37.2842 30.8514 36.6241 30.1629 35.9594C29.5918 35.4076 28.975 35.3862 28.4967 35.8679C28.0185 36.3497 28.0413 36.9671 28.5988 37.5357C29.6451 38.6028 30.6991 39.6623 31.7682 40.7065C32.379 41.3026 32.9181 41.3026 33.5365 40.6882C35.7084 38.5342 37.8635 36.3649 40.0262 34.2002C40.2806 33.9472 40.4816 33.6667 40.4862 33.2307Z" fill="#FEAB00"/>
  <path d="M40.4859 33.2311C40.4813 33.6671 40.2803 33.9475 40.0274 34.2006C37.8662 36.3638 35.7096 38.5331 33.5377 40.6886C32.9194 41.303 32.3787 41.303 31.7695 40.7069C30.7003 39.6627 29.6463 38.6032 28.6 37.5361C28.0426 36.9675 28.0197 36.3501 28.4979 35.8683C28.9762 35.3866 29.593 35.408 30.1642 35.9598C30.8526 36.6245 31.5486 37.2846 32.1883 37.9949C32.5584 38.4065 32.7655 38.3349 33.1174 37.9751C34.8826 36.1732 36.6676 34.3927 38.4602 32.6198C39.1821 31.9048 40.1264 32.0755 40.4249 32.946C40.4615 33.0542 40.4737 33.1716 40.4859 33.2311Z" fill="#F2F0EB"/>
</svg>