<svg xmlns="http://www.w3.org/2000/svg" width="24" height="24" viewBox="0 0 24 24" fill="none"> <g clip-path="url(#clip0_123_17997)"> <rect width="24" height="24" rx="12" fill="white"/> <path d="M9 8C9 8.79565 9.31607 9.55871 9.87868 10.1213C10.4413 10.6839 11.2044 11 12 11C12.7956 11 13.5587 10.6839 14.1213 10.1213C14.6839 9.55871 15 8.79565 15 8C15 7.20435 14.6839 6.44129 14.1213 5.87868C13.5587 5.31607 12.7956 5 12 5C11.2044 5 10.4413 5.31607 9.87868 5.87868C9.31607 6.44129 9 7.20435 9 8Z" stroke="#2E522A" stroke-width="2" stroke-linecap="round" stroke-linejoin="round"/> <path d="M7 20V18.3333C7 17.4493 7.35119 16.6014 7.97631 15.9763C8.60143 15.3512 9.44928 15 10.3333 15H13.6667C14.5507 15 15.3986 15.3512 16.0237 15.9763C16.6488 16.6014 17 17.4493 17 18.3333V20" stroke="#2E522A" stroke-width="2" stroke-linecap="round" stroke-linejoin="round"/> </g> <defs> <clipPath id="clip0_123_17997"> <rect width="24" height="24" rx="12" fill="white"/> </clipPath> </defs> </svg>